<svg height="200px" width="200px" version="1.1" id="Layer_1" xmlns="http://www.w3.org/2000/svg" xmlns:xlink="http://www.w3.org/1999/xlink" viewBox="0 0 512 512" xml:space="preserve"><g id="SVGRepo_bgCarrier" stroke-width="0"></g><g id="SVGRepo_tracerCarrier" stroke-linecap="round" stroke-linejoin="round"></g><g id="SVGRepo_iconCarrier"> <g> <g> <path d="M512,191.996v-128c0-11.776-9.536-21.333-21.333-21.333h-85.333c-0.001,0-0.003,0-0.004,0s-0.003,0-0.004,0H149.333 h-0.008H21.333C9.557,42.662,0,52.22,0,63.996v128v128v128c0,11.776,9.557,21.333,21.333,21.333h128h170.892 c0.143,0.001,0.286,0.008,0.429,0.009h0.917c0.215,0,0.429-0.008,0.644-0.009h83.117h85.333c11.797,0,21.333-9.557,21.333-21.333 v-128c0-0.071-0.01-0.14-0.011-0.211V192.206C511.99,192.135,512,192.067,512,191.996z M410.014,378.89 c-0.354,0.546-0.71,1.09-1.074,1.629c-0.676,0.997-1.369,1.987-2.083,2.965c-0.151,0.207-0.297,0.417-0.45,0.622 c-0.914,1.231-1.857,2.446-2.832,3.644c-0.04,0.049-0.079,0.1-0.119,0.149c-1.028,1.257-2.09,2.495-3.185,3.714 c-0.012,0.014-0.024,0.028-0.036,0.041c-2.859,3.179-5.888,6.08-9.003,8.811c-0.015,0.013-0.029,0.028-0.045,0.042 c-19.171,16.548-43.949,25.341-69.564,26.139c-2.17-0.002-4.347-0.062-6.53-0.196c-3.082-0.185-6.133-0.509-9.152-0.952 c-24.583-3.686-47.309-15.953-63.922-34.858c-0.073-0.083-0.142-0.168-0.214-0.251c-0.871-1-1.72-2.018-2.549-3.049 c-0.156-0.193-0.314-0.386-0.468-0.58c-0.924-1.166-1.827-2.348-2.698-3.551c-0.015-0.021-0.03-0.042-0.045-0.062 c-13.026-18.02-20.022-40.047-19.875-62.988c0.043-3.962,0.277-7.881,0.724-11.758c1.501,2.09,2.995,4.064,4.468,5.938 c0.121,0.154,0.241,0.307,0.362,0.459c0.334,0.422,0.667,0.841,0.998,1.251c0.386,0.479,0.771,0.95,1.153,1.414 c0.273,0.331,0.544,0.654,0.815,0.977c0.26,0.311,0.519,0.617,0.777,0.921c0.302,0.355,0.602,0.707,0.9,1.052 c0.351,0.407,0.7,0.807,1.045,1.199c0.217,0.246,0.431,0.488,0.645,0.728c0.365,0.41,0.727,0.812,1.084,1.205 c0.243,0.268,0.482,0.528,0.721,0.788c0.273,0.297,0.543,0.589,0.811,0.875c0.216,0.231,0.431,0.461,0.642,0.686 c0.349,0.37,0.693,0.731,1.032,1.082c0.27,0.28,0.532,0.55,0.794,0.819c0.099,0.101,0.196,0.201,0.294,0.3 c3.187,3.247,5.792,5.624,7.411,7.036c5.013,5.013,12.373,7.488,19.819,5.76c9.27-2.064,15.749-9.925,16.573-18.908 c0-0.004,0.001-0.008,0.001-0.012c0.046-0.504,0.073-1.012,0.083-1.522c0.002-0.096,0.001-0.192,0.002-0.289 c0.002-0.415-0.007-0.832-0.029-1.25c-0.005-0.101-0.006-0.201-0.013-0.302c-0.029-0.429-0.075-0.86-0.131-1.291 c-0.027-0.211-0.058-0.422-0.092-0.633c-0.042-0.263-0.091-0.525-0.143-0.788c-0.034-0.176-0.057-0.352-0.096-0.528 c-6.507-29.248-6.549-56.597-0.171-81.28c0.003-0.011,0.005-0.022,0.008-0.034c2.859-11.02,7.122-21.677,12.686-31.674 c0.055-0.098,0.101-0.199,0.154-0.298c5.414-9.668,11.169-17.927,17.971-25.658l11.136-13.376 c6.264,11.868,11.57,23.906,15.834,35.987c0.005,0.015,0.009,0.03,0.014,0.045c6.108,17.352,9.959,34.752,11.525,51.916 c0.036,0.406,0.069,0.813,0.103,1.219c0.147,1.725,0.266,3.447,0.367,5.166c0.065,1.133,0.127,2.266,0.172,3.398 c0.031,0.755,0.055,1.509,0.077,2.263c0.044,1.569,0.074,3.137,0.08,4.705c0.001,0.243,0.008,0.487,0.008,0.731 c0,3.228,0.724,6.311,2.029,9.082c2.099,4.461,5.708,8.106,10.229,10.23c1.66,0.782,3.442,1.363,5.32,1.702 c3.094,0.575,6.16,0.434,9.036-0.297c5.833-1.477,10.853-5.425,13.688-10.954c0.096-0.187,0.204-0.365,0.295-0.556 c0.073-0.153,0.13-0.315,0.199-0.47c0.19-0.425,0.383-0.849,0.547-1.29c0.212-0.574,2.361-6.431,5.129-16.066 c1.141-3.966,2.387-8.567,3.643-13.707l2.048,2.325c1.111,1.266,2.186,2.551,3.23,3.852c15.412,19.246,24.036,43.116,24.45,67.834 c0,0.045-0.005,0.09-0.005,0.136c0.294,20.474-5.146,40.142-15.54,56.907C410.732,377.766,410.378,378.331,410.014,378.89z M149.333,298.662H42.667v-85.333h106.658h0.008h85.333v11.238c-1.367,5.452-2.51,10.99-3.377,16.632 c-0.009-0.012-0.019-0.023-0.027-0.035c-0.399-0.568-0.824-1.115-1.275-1.64c-0.009-0.011-0.019-0.022-0.028-0.033 c-0.458-0.531-0.941-1.039-1.448-1.521c-0.007-0.006-0.013-0.012-0.02-0.019c-0.509-0.482-1.04-0.94-1.594-1.37 c-0.01-0.008-0.021-0.016-0.031-0.023c-0.55-0.426-1.121-0.826-1.712-1.196c-0.018-0.011-0.036-0.022-0.054-0.033 c-0.585-0.365-1.189-0.704-1.81-1.012c-0.025-0.013-0.051-0.024-0.076-0.036c-0.62-0.304-1.256-0.581-1.907-0.826 c-0.02-0.008-0.041-0.014-0.061-0.022c-1.342-0.499-2.746-0.871-4.199-1.096c-1.929-0.283-3.851-0.292-5.728-0.068 c-6.331,0.749-12.104,4.267-15.59,9.826c-10.969,17.532-17.856,36.83-20.778,56.567H149.333z M467.684,298.662 c-4.316-28.097-16.541-55.409-36.672-78.349l-6.131-6.985h44.441v85.333H467.684z M426.667,85.329h42.667v85.333h-42.667V85.329z M383.991,170.662h-14.633c-5.052-12.232-11.052-24.41-17.987-36.515c-0.36-0.632-0.722-1.262-1.087-1.893 c-0.424-0.73-0.858-1.46-1.289-2.189c-1.797-3.051-3.63-6.091-5.538-9.109c-0.599-0.944-1.275-1.83-2.009-2.663 c-0.807-0.924-1.688-1.783-2.64-2.555l-3.69-2.964l-1.731-1.397c-9.045-7.317-22.336-5.995-29.781,2.965l-28.565,34.347 c-1.283,1.459-2.539,2.948-3.779,4.459c-4.707,5.678-9.019,11.515-12.941,17.508H256c-0.043,0-0.084,0.006-0.127,0.006h-85.207 V85.329h213.325V170.662z M42.667,85.329h85.325v85.333H42.667V85.329z M42.667,341.329H128v85.333H42.667V341.329z M217.387,426.662h-46.72v-85.333h4.08c2.903,21.011,10.247,41.44,21.893,59.685c0.171,0.269,0.339,0.539,0.512,0.806 c0.74,1.143,1.502,2.274,2.276,3.399c0.331,0.482,0.662,0.962,0.999,1.44c0.692,0.98,1.396,1.952,2.114,2.918 c0.453,0.61,0.913,1.215,1.376,1.818c0.438,0.569,0.883,1.134,1.33,1.698c0.786,0.993,1.584,1.977,2.397,2.951 c0.283,0.338,0.568,0.674,0.854,1.01c0.49,0.577,0.966,1.165,1.466,1.735c0.834,0.944,1.682,1.859,2.529,2.778 c0.06,0.065,0.118,0.131,0.178,0.195c0.817,0.884,1.649,1.753,2.484,2.613c0.145,0.149,0.29,0.298,0.436,0.446 C216.188,425.435,216.776,426.062,217.387,426.662z M469.333,426.662h-42.667v-0.905c0.507-0.508,1.003-1.027,1.503-1.542 c1.276-1.304,2.541-2.632,3.766-3.995c0.394-0.438,0.766-0.891,1.155-1.333c0.566-0.644,1.129-1.29,1.682-1.942 c0.458-0.54,0.914-1.081,1.363-1.627c0.907-1.1,1.798-2.209,2.668-3.33c0.223-0.288,0.44-0.58,0.661-0.87 c0.904-1.183,1.788-2.377,2.651-3.582c0.087-0.122,0.177-0.242,0.263-0.365c14.129-19.844,22.726-42.485,25.795-65.842h1.159 V426.662z"></path> </g> </g> </g></svg>