<?xml version="1.0" encoding="utf-8"?>
<!-- Created in SVG Repo format -->
<svg width="800px" height="800px" viewBox="0 0 24 24" xmlns="http://www.w3.org/2000/svg">
  <title>mobile-phone</title>
  <rect width="24" height="24" fill="none"/>
  <path d="M7 2C6.44772 2 6 2.44772 6 3V21C6 21.5523 6.44772 22 7 22H17C17.5523 22 18 21.5523 18 21V3C18 2.44772 17.5523 2 17 2H7ZM8 4H16V20H8V4ZM12 18C12.5523 18 13 18.4477 13 19C13 19.5523 12.5523 20 12 20C11.4477 20 11 19.5523 11 19C11 18.4477 11.4477 18 12 18Z"/>
</svg>
