<svg height="200px" width="200px" version="1.1" id="Layer_1" xmlns="http://www.w3.org/2000/svg" xmlns:xlink="http://www.w3.org/1999/xlink" viewBox="0 0 512 512" xml:space="preserve"><g id="SVGRepo_bgCarrier" stroke-width="0"></g><g id="SVGRepo_tracerCarrier" stroke-linecap="round" stroke-linejoin="round"></g><g id="SVGRepo_iconCarrier"> <g> <g> <path d="M256,70.485c-9.223,0-16.696,7.473-16.696,16.696v40.811c0,9.223,7.473,16.696,16.696,16.696 c9.223,0,16.696-7.473,16.696-16.696V87.181C272.696,77.958,265.223,70.485,256,70.485z"></path> </g> </g> <g> <g> <path d="M456.352,33.381h-114.53C312.671,6.859,273.966-4.738,234.395,1.776c-24.367,4.026-46.585,15.399-64.377,31.604H55.648 c-27.62,0-50.088,22.468-50.088,50.088v378.443C5.56,489.532,28.027,512,55.648,512h183.656h33.392h183.656 c27.62,0,50.088-22.468,50.088-50.088V83.469C506.44,55.849,483.972,33.381,456.352,33.381z M273.079,220.983 c-0.128,0.019-0.255,0.038-0.383,0.06v257.565h-33.392V221.042c0,0-0.006,0-0.008-0.001 c-44.204-7.895-77.907-46.602-77.907-93.049c0-50.997,41.467-94.611,94.611-94.611c0,0,0.006,0,0.008,0h0.007 c0.186,0,0.365,0.027,0.553,0.029c51.586,0.293,94.043,42.455,94.043,94.582C350.611,173.724,317.485,212.881,273.079,220.983z"></path> </g> </g> </g></svg>