<?xml version="1.0" encoding="utf-8"?>
<!-- Created in SVG Repo format -->
<svg width="800px" height="800px" viewBox="0 0 24 24" xmlns="http://www.w3.org/2000/svg">
  <title>tablet</title>
  <rect width="24" height="24" fill="none"/>
  <path d="M6 3C5.44772 3 5 3.44772 5 4V20C5 20.5523 5.44772 21 6 21H18C18.5523 21 19 20.5523 19 20V4C19 3.44772 18.5523 3 18 3H6ZM7 5H17V19H7V5ZM12 17C11.7239 17 11.5 17.2239 11.5 17.5C11.5 17.7761 11.7239 18 12 18C12.2761 18 12.5 17.7761 12.5 17.5C12.5 17.2239 12.2761 17 12 17Z"/>
</svg>
