<?xml version="1.0" encoding="utf-8"?>
<!-- Created in SVG Repo format -->
<svg width="800px" height="800px" viewBox="0 0 24 24" xmlns="http://www.w3.org/2000/svg">
  <title>tv</title>
  <rect width="24" height="24" fill="none"/>
  <path d="M4 5C3.44772 5 3 5.44772 3 6V16C3 16.5523 3.44772 17 4 17H20C20.5523 17 21 16.5523 21 16V6C21 5.44772 20.5523 5 20 5H4ZM5 7H19V15H5V7ZM8 19C7.72386 19 7.5 19.2239 7.5 19.5C7.5 19.7761 7.72386 20 8 20H16C16.2761 20 16.5 19.7761 16.5 19.5C16.5 19.2239 16.2761 19 16 19H8Z"/>
</svg>
