<?xml version="1.0" encoding="UTF-8"?>
<!DOCTYPE svg PUBLIC "-//W3C//DTD SVG 1.1//EN" "http://www.w3.org/Graphics/SVG/1.1/DTD/svg11.dtd">
<svg xmlns="http://www.w3.org/2000/svg" version="1.1" width="512px" height="512px" style="shape-rendering:geometricPrecision; text-rendering:geometricPrecision; image-rendering:optimizeQuality; fill-rule:evenodd; clip-rule:evenodd" xmlns:xlink="http://www.w3.org/1999/xlink">
<g><path style="opacity:0.045" fill="#ffd5e0" d="M 220.5,5.5 C 220.5,6.16667 220.5,6.83333 220.5,7.5C 217.167,7.5 213.833,7.5 210.5,7.5C 210.611,6.88258 210.944,6.38258 211.5,6C 214.482,5.50204 217.482,5.33537 220.5,5.5 Z"/></g>
<g><path style="opacity:0.42" fill="#f9bec3" d="M 224.5,5.5 C 243.5,4.16667 262.5,4.16667 281.5,5.5C 278.615,5.1936 275.948,5.52693 273.5,6.5C 259.167,6.5 244.833,6.5 230.5,6.5C 228.735,5.53862 226.735,5.20528 224.5,5.5 Z"/></g>
<g><path style="opacity:0.6" fill="#f48296" d="M 220.5,5.5 C 221.833,5.5 223.167,5.5 224.5,5.5C 226.735,5.20528 228.735,5.53862 230.5,6.5C 227.167,6.83333 223.833,7.16667 220.5,7.5C 220.5,6.83333 220.5,6.16667 220.5,5.5 Z"/></g>
<g><path style="opacity:1" fill="#df516b" d="M 230.5,6.5 C 244.833,6.5 259.167,6.5 273.5,6.5C 275.179,6.28519 276.179,6.95186 276.5,8.5C 274.167,8.5 271.833,8.5 269.5,8.5C 253.327,7.35118 236.994,7.35118 220.5,8.5C 220.5,8.16667 220.5,7.83333 220.5,7.5C 223.833,7.16667 227.167,6.83333 230.5,6.5 Z"/></g>
<g><path style="opacity:0.686" fill="#ed8c7f" d="M 273.5,6.5 C 275.948,5.52693 278.615,5.1936 281.5,5.5C 283.167,5.5 284.833,5.5 286.5,5.5C 288.833,6.83333 291.167,8.16667 293.5,9.5C 287.894,8.59311 282.227,8.25978 276.5,8.5C 276.179,6.95186 275.179,6.28519 273.5,6.5 Z"/></g>
<g><path style="opacity:0.173" fill="#fed1d3" d="M 208.5,7.5 C 207.448,9.25605 205.781,9.92271 203.5,9.5C 204.552,7.74395 206.219,7.07729 208.5,7.5 Z"/></g>
<g><path style="opacity:1" fill="#f53c60" d="M 269.5,8.5 C 271.833,8.5 274.167,8.5 276.5,8.5C 276.5,8.83333 276.5,9.16667 276.5,9.5C 277.445,11.7789 279.112,13.4456 281.5,14.5C 287.588,16.6297 293.255,19.463 298.5,23C 300.134,23.4935 301.801,23.6602 303.5,23.5C 303.5,24.8333 304.167,25.5 305.5,25.5C 306.105,27.0257 307.271,28.0257 309,28.5C 309.333,29.8333 309.667,31.1667 310,32.5C 315.087,39.0026 319.421,46.0026 323,53.5C 324.218,62.0397 326.218,70.373 329,78.5C 329.167,80.3333 329.333,82.1667 329.5,84C 328.214,88.8603 326.714,93.6936 325,98.5C 324.952,104.387 324.118,110.053 322.5,115.5C 320.787,116.635 320.12,118.302 320.5,120.5C 317.876,122.45 314.876,123.95 311.5,125C 311.67,126.57 312.003,128.403 312.5,130.5C 311.167,130.5 309.833,130.5 308.5,130.5C 308.643,132.262 308.309,133.929 307.5,135.5C 301.573,137.227 296.906,140.56 293.5,145.5C 290.185,146.553 286.852,146.553 283.5,145.5C 283.834,148.188 283.168,150.521 281.5,152.5C 276.268,154.002 270.934,155.502 265.5,157C 254.833,157.333 244.167,157.667 233.5,158C 232.167,159 230.833,160 229.5,161C 223.709,161.788 218.042,163.122 212.5,165C 208.861,166.985 205.527,169.318 202.5,172C 200.235,173.758 198.568,175.925 197.5,178.5C 196.127,178.343 194.793,178.51 193.5,179C 185.606,185.895 178.773,193.728 173,202.5C 173.039,206.631 171.205,209.631 167.5,211.5C 166.537,215.687 165.204,219.687 163.5,223.5C 161.75,227.183 161.083,231.183 161.5,235.5C 160.167,235.5 158.833,235.5 157.5,235.5C 157.5,233.833 157.5,232.167 157.5,230.5C 156.522,221.707 155.355,213.041 154,204.5C 152.748,206.001 151.748,207.668 151,209.5C 148.192,206.366 145.026,204.033 141.5,202.5C 139.832,198.052 137.165,194.218 133.5,191C 130.193,190.347 127.527,188.681 125.5,186C 123.19,185.503 120.857,185.337 118.5,185.5C 116.833,184.833 115.167,184.167 113.5,183.5C 111.924,182.857 110.59,181.857 109.5,180.5C 106.092,179.154 102.759,177.32 99.5,175C 89.5,174.333 79.5,174.333 69.5,175C 63.0491,177.484 56.3825,179.484 49.5,181C 44.7941,184.499 39.7941,187.332 34.5,189.5C 34.5,190.5 34.5,191.5 34.5,192.5C 31.1955,194.973 28.3622,197.973 26,201.5C 25.5172,202.448 25.3505,203.448 25.5,204.5C 23.8333,204.5 22.1667,204.5 20.5,204.5C 20.5,206.167 20.5,207.833 20.5,209.5C 19.448,209.351 18.448,209.517 17.5,210C 16.2744,211.635 14.941,213.135 13.5,214.5C 12.9844,209.896 12.9844,205.229 13.5,200.5C 16.6728,188.859 20.1728,177.193 24,165.5C 25.8529,160.961 28.1862,156.628 31,152.5C 32.6656,146.526 34.8323,140.859 37.5,135.5C 37.5,134.833 37.5,134.167 37.5,133.5C 40.8246,131.834 43.158,129.167 44.5,125.5C 45.8498,124.05 47.5165,123.383 49.5,123.5C 49.5,121.833 49.5,120.167 49.5,118.5C 54.2495,120.643 55.9162,119.31 54.5,114.5C 55.8064,113.088 56.6397,111.421 57,109.5C 58.3561,108.62 59.8561,108.286 61.5,108.5C 61.7366,105.353 62.5699,102.353 64,99.5C 67.5144,97.9851 69.6811,95.3184 70.5,91.5C 73.9249,88.0855 76.9249,84.4188 79.5,80.5C 85.0277,76.2353 90.361,71.7353 95.5,67C 96.448,66.5172 97.448,66.3505 98.5,66.5C 98.9628,62.7281 100.963,60.2281 104.5,59C 105.733,57.3333 107.067,55.8333 108.5,54.5C 109.906,54.0269 110.573,53.0269 110.5,51.5C 114.713,51.0567 118.046,49.0567 120.5,45.5C 124.059,44.8581 127.393,43.6914 130.5,42C 132.037,40.8904 132.703,39.3904 132.5,37.5C 132.833,37.5 133.167,37.5 133.5,37.5C 139.353,36.1226 145.02,34.2893 150.5,32C 159.968,26.0951 169.968,21.5951 180.5,18.5C 186.409,17.2015 192.409,16.5348 198.5,16.5C 198.34,18.1992 198.506,19.8659 199,21.5C 202.641,19.8346 206.475,18.6679 210.5,18C 209.132,16.6598 207.799,15.3264 206.5,14C 206.645,13.228 206.978,12.5613 207.5,12C 217.184,11.8321 226.851,11.3321 236.5,10.5C 237.025,9.80762 237.692,9.30762 238.5,9C 248.828,8.50017 259.161,8.33351 269.5,8.5 Z"/></g>
<g><path style="opacity:0.639" fill="#f6c3b3" d="M 286.5,5.5 C 288.857,5.33669 291.19,5.50335 293.5,6C 297.221,6.67222 300.555,7.83889 303.5,9.5C 300.167,9.5 296.833,9.5 293.5,9.5C 291.167,8.16667 288.833,6.83333 286.5,5.5 Z"/></g>
<g><path style="opacity:0.145" fill="#ffcedb" d="M 201.5,9.5 C 200.082,11.3079 198.082,11.9746 195.5,11.5C 196.918,9.69206 198.918,9.02539 201.5,9.5 Z"/></g>
<g><path style="opacity:0.855" fill="#e56c82" d="M 208.5,7.5 C 209.167,7.5 209.833,7.5 210.5,7.5C 213.833,7.5 217.167,7.5 220.5,7.5C 220.5,7.83333 220.5,8.16667 220.5,8.5C 211.665,9.80506 202.998,11.4717 194.5,13.5C 194.833,12.8333 195.167,12.1667 195.5,11.5C 198.082,11.9746 200.082,11.3079 201.5,9.5C 202.167,9.5 202.833,9.5 203.5,9.5C 205.781,9.92271 207.448,9.25605 208.5,7.5 Z"/></g>
<g><path style="opacity:0.992" fill="#e7795c" d="M 276.5,9.5 C 276.5,9.16667 276.5,8.83333 276.5,8.5C 282.227,8.25978 287.894,8.59311 293.5,9.5C 296.833,9.5 300.167,9.5 303.5,9.5C 304.833,9.5 306.167,9.5 307.5,9.5C 307.5,10.8333 308.167,11.5 309.5,11.5C 310.167,12.1667 310.833,12.8333 311.5,13.5C 305.535,12.5743 299.535,11.9076 293.5,11.5C 289.5,10.8333 285.5,10.1667 281.5,9.5C 279.833,9.5 278.167,9.5 276.5,9.5 Z"/></g>
<g><path style="opacity:0.041" fill="#ffecd0" d="M 307.5,9.5 C 310.082,9.02539 312.082,9.69206 313.5,11.5C 312.167,11.5 310.833,11.5 309.5,11.5C 308.167,11.5 307.5,10.8333 307.5,9.5 Z"/></g>
<g><path style="opacity:0.408" fill="#f6a8b5" d="M 195.5,11.5 C 195.167,12.1667 194.833,12.8333 194.5,13.5C 193.833,13.5 193.167,13.5 192.5,13.5C 189.57,14.299 186.57,14.6323 183.5,14.5C 183.611,13.8826 183.944,13.3826 184.5,13C 188.114,12.0642 191.78,11.5642 195.5,11.5 Z"/></g>
<g><path style="opacity:1" fill="#ed4162" d="M 269.5,8.5 C 259.161,8.33351 248.828,8.50017 238.5,9C 237.692,9.30762 237.025,9.80762 236.5,10.5C 226.851,11.3321 217.184,11.8321 207.5,12C 206.978,12.5613 206.645,13.228 206.5,14C 207.799,15.3264 209.132,16.6598 210.5,18C 206.475,18.6679 202.641,19.8346 199,21.5C 198.506,19.8659 198.34,18.1992 198.5,16.5C 192.409,16.5348 186.409,17.2015 180.5,18.5C 184.001,17.2005 187.667,16.0338 191.5,15C 192.056,14.6174 192.389,14.1174 192.5,13.5C 193.167,13.5 193.833,13.5 194.5,13.5C 202.998,11.4717 211.665,9.80506 220.5,8.5C 236.994,7.35118 253.327,7.35118 269.5,8.5 Z"/></g>
<g><path style="opacity:0.012" fill="#fff3c9" d="M 322.5,12.5 C 324.027,12.427 325.027,13.0937 325.5,14.5C 323.821,14.7148 322.821,14.0481 322.5,12.5 Z"/></g>
<g><path style="opacity:1" fill="#f46c45" d="M 293.5,11.5 C 299.535,11.9076 305.535,12.5743 311.5,13.5C 316.568,14.2027 321.568,15.2027 326.5,16.5C 328.167,16.5 329.833,16.5 331.5,16.5C 331.5,17.1667 331.5,17.8333 331.5,18.5C 333.007,19.9755 334.673,21.3088 336.5,22.5C 332.774,21.8088 329.107,20.8088 325.5,19.5C 322.185,20.2662 319.518,19.0996 317.5,16C 313.167,15.3333 308.833,15.3333 304.5,16C 309.693,17.6176 314.693,19.6176 319.5,22C 317.212,22.8221 314.878,23.4888 312.5,24C 314.833,27 317.167,30 319.5,33C 321.574,32.7727 323.574,32.9394 325.5,33.5C 327.05,36.1293 326.384,37.9626 323.5,39C 324.167,39.3333 324.833,39.6667 325.5,40C 324.167,41.8402 324.334,42.3402 326,41.5C 326.11,43.8483 327.277,45.3483 329.5,46C 328.596,51.5347 329.763,56.7014 333,61.5C 333.499,65.4862 333.666,69.4862 333.5,73.5C 334.822,73.33 335.989,73.6634 337,74.5C 337.422,76.3553 337.922,78.1886 338.5,80C 335.802,89.9714 333.635,100.138 332,110.5C 328.249,117.3 324.416,123.967 320.5,130.5C 319.853,133.454 319.686,136.454 320,139.5C 315.351,141.866 311.185,145.033 307.5,149C 305.833,149.333 304.167,149.667 302.5,150C 301.663,151.011 301.33,152.178 301.5,153.5C 302.552,153.351 303.552,153.517 304.5,154C 303.167,154.667 303.167,155.333 304.5,156C 302.884,156.615 301.551,157.615 300.5,159C 302.597,160.61 304.93,161.777 307.5,162.5C 305.579,163.641 303.579,163.808 301.5,163C 297.644,157.572 292.311,155.406 285.5,156.5C 302.376,148.958 315.042,136.958 323.5,120.5C 326.776,115.101 329.609,109.435 332,103.5C 332.551,96.6704 333.051,89.837 333.5,83C 333.475,80.0706 332.809,77.5706 331.5,75.5C 331.5,72.1667 331.5,68.8333 331.5,65.5C 329.759,60.3173 328.259,54.9839 327,49.5C 322.388,40.4469 316.888,31.9469 310.5,24C 308.527,23.5045 306.527,23.3379 304.5,23.5C 305.885,18.1873 303.885,15.6873 298.5,16C 296.602,14.583 294.936,13.083 293.5,11.5 Z"/></g>
<g><path style="opacity:0.624" fill="#ec9d82" d="M 309.5,11.5 C 310.833,11.5 312.167,11.5 313.5,11.5C 316.545,11.5079 319.545,11.8413 322.5,12.5C 322.821,14.0481 323.821,14.7148 325.5,14.5C 325.833,14.5 326.167,14.5 326.5,14.5C 326.5,15.1667 326.5,15.8333 326.5,16.5C 321.568,15.2027 316.568,14.2027 311.5,13.5C 310.833,12.8333 310.167,12.1667 309.5,11.5 Z"/></g>
<g><path style="opacity:0.035" fill="#fdd4c5" d="M 326.5,14.5 C 328.781,14.0773 330.448,14.744 331.5,16.5C 329.833,16.5 328.167,16.5 326.5,16.5C 326.5,15.8333 326.5,15.1667 326.5,14.5 Z"/></g>
<g><path style="opacity:0.004" fill="#ffefef" d="M 174.5,16.5 C 174.5,17.1667 174.5,17.8333 174.5,18.5C 173.833,18.5 173.167,18.5 172.5,18.5C 172.5,17.1667 173.167,16.5 174.5,16.5 Z"/></g>
<g><path style="opacity:0.608" fill="#f6a7b3" d="M 183.5,14.5 C 181.038,16.6907 178.038,18.0241 174.5,18.5C 174.5,17.8333 174.5,17.1667 174.5,16.5C 177.336,15.2245 180.336,14.5578 183.5,14.5 Z"/></g>
<g><path style="opacity:0.431" fill="#fcb6c1" d="M 170.5,18.5 C 168.572,20.2939 166.238,21.2939 163.5,21.5C 165.176,19.1663 167.509,18.1663 170.5,18.5 Z"/></g>
<g><path style="opacity:1" fill="#f04855" d="M 276.5,9.5 C 278.167,9.5 279.833,9.5 281.5,9.5C 288.892,13.8817 296.226,18.5484 303.5,23.5C 301.801,23.6602 300.134,23.4935 298.5,23C 293.255,19.463 287.588,16.6297 281.5,14.5C 279.112,13.4456 277.445,11.7789 276.5,9.5 Z"/></g>
<g><path style="opacity:1" fill="#e67856" d="M 331.5,18.5 C 338.889,19.7616 345.889,22.0949 352.5,25.5C 353.913,26.9348 355.58,27.9348 357.5,28.5C 350.441,26.7538 343.441,24.7538 336.5,22.5C 334.673,21.3088 333.007,19.9755 331.5,18.5 Z"/></g>
<g><path style="opacity:0.475" fill="#f3adb7" d="M 163.5,21.5 C 162.448,23.256 160.781,23.9227 158.5,23.5C 159.552,21.744 161.219,21.0773 163.5,21.5 Z"/></g>
<g><path style="opacity:1" fill="#f96353" d="M 281.5,9.5 C 285.5,10.1667 289.5,10.8333 293.5,11.5C 294.936,13.083 296.602,14.583 298.5,16C 303.885,15.6873 305.885,18.1873 304.5,23.5C 306.527,23.3379 308.527,23.5045 310.5,24C 316.888,31.9469 322.388,40.4469 327,49.5C 328.259,54.9839 329.759,60.3173 331.5,65.5C 329.845,64.0761 328.512,62.2427 327.5,60C 326.521,52.1894 323.188,45.6894 317.5,40.5C 315.666,35.3384 312.999,30.6717 309.5,26.5C 308.311,25.5713 306.978,25.238 305.5,25.5C 304.167,25.5 303.5,24.8333 303.5,23.5C 296.226,18.5484 288.892,13.8817 281.5,9.5 Z"/></g>
<g><path style="opacity:0.114" fill="#f8c2af" d="M 331.5,16.5 C 338.341,17.804 345.008,19.6373 351.5,22C 354.508,23.6519 357.508,25.1519 360.5,26.5C 357.763,26.5987 355.096,26.2653 352.5,25.5C 345.889,22.0949 338.889,19.7616 331.5,18.5C 331.5,17.8333 331.5,17.1667 331.5,16.5 Z"/></g>
<g><path style="opacity:0.431" fill="#f4abb9" d="M 158.5,23.5 C 156.584,25.977 153.917,26.977 150.5,26.5C 152.597,24.5176 155.264,23.5176 158.5,23.5 Z"/></g>
<g><path style="opacity:1" fill="#f76a40" d="M 336.5,22.5 C 343.441,24.7538 350.441,26.7538 357.5,28.5C 357.5,28.8333 357.5,29.1667 357.5,29.5C 357.281,30.675 357.614,31.675 358.5,32.5C 364.79,34.3201 370.79,36.6535 376.5,39.5C 377.873,39.3433 379.207,39.51 380.5,40C 382.664,41.4908 384.664,42.9908 386.5,44.5C 388.857,49.8764 392.857,52.8764 398.5,53.5C 398.5,54.5 398.5,55.5 398.5,56.5C 399.833,56.5 401.167,56.5 402.5,56.5C 402.351,57.552 402.517,58.552 403,59.5C 407.662,62.2435 411.829,65.5768 415.5,69.5C 417.396,70.4656 419.396,70.7989 421.5,70.5C 423.812,76.1458 427.812,80.1458 433.5,82.5C 434.778,82.7822 435.778,83.4489 436.5,84.5C 440.426,89.3002 444.092,94.3002 447.5,99.5C 448.219,101.764 448.552,104.097 448.5,106.5C 447.5,106.5 446.5,106.5 445.5,106.5C 445.511,108.547 445.844,110.547 446.5,112.5C 445.078,116.034 444.411,119.7 444.5,123.5C 447.292,123.452 449.125,124.785 450,127.5C 451.48,125.663 451.48,123.663 450,121.5C 448.322,120.534 447.655,119.201 448,117.5C 449.813,121.067 452.313,121.901 455.5,120C 453.717,118.261 452.05,116.428 450.5,114.5C 451.356,112.456 452.689,111.289 454.5,111C 456.964,116.107 459.797,120.941 463,125.5C 467.78,128.064 469.613,132.064 468.5,137.5C 469.675,137.281 470.675,137.614 471.5,138.5C 472.748,141.07 473.748,143.737 474.5,146.5C 476.783,147.971 478.783,149.638 480.5,151.5C 482.15,154.801 483.817,158.134 485.5,161.5C 485.999,166.669 487.666,171.336 490.5,175.5C 490.5,175.833 490.5,176.167 490.5,176.5C 491.797,182.016 492.797,187.682 493.5,193.5C 494.086,193.709 494.586,194.043 495,194.5C 495.333,198.833 495.667,203.167 496,207.5C 497.032,209.027 498.199,210.36 499.5,211.5C 499.287,219.282 500.121,226.949 502,234.5C 502.5,245.495 502.667,256.495 502.5,267.5C 501.883,267.389 501.383,267.056 501,266.5C 500.333,268.5 499,269.833 497,270.5C 496.463,273.093 495.63,275.593 494.5,278C 495.088,279.92 496.088,281.587 497.5,283C 496.228,284.307 495.228,285.807 494.5,287.5C 493.667,285.5 492.833,283.5 492,281.5C 490.667,282.167 489.333,282.833 488,283.5C 487.667,285.5 487.333,287.5 487,289.5C 482.933,292.671 482.433,296.338 485.5,300.5C 485.167,301.167 484.833,301.833 484.5,302.5C 483.749,301.624 483.249,300.624 483,299.5C 482.71,301.044 482.044,302.377 481,303.5C 480.814,301.1 480.314,298.766 479.5,296.5C 478.167,297.167 476.833,297.833 475.5,298.5C 473.995,295.869 473.329,296.203 473.5,299.5C 475.167,299.5 476.833,299.5 478.5,299.5C 478.5,303.5 478.5,307.5 478.5,311.5C 476.628,312.511 474.628,313.345 472.5,314C 471.773,315.399 471.273,316.899 471,318.5C 462.349,324.188 452.849,327.188 442.5,327.5C 442.5,328.833 442.5,330.167 442.5,331.5C 432.494,331.666 422.494,331.5 412.5,331C 407.117,329.261 401.784,327.428 396.5,325.5C 396.167,325.5 395.833,325.5 395.5,325.5C 394.916,323.743 393.749,322.41 392,321.5C 389.078,320.616 386.245,319.616 383.5,318.5C 381.129,316.132 378.462,314.132 375.5,312.5C 373.585,310.929 372.585,308.929 372.5,306.5C 368.537,305.87 366.204,303.537 365.5,299.5C 364.377,297.482 364.377,295.482 365.5,293.5C 361.912,289.603 359.745,284.936 359,279.5C 357,278.833 355.667,277.5 355,275.5C 354.304,272.522 353.804,269.522 353.5,266.5C 353.666,257.827 353.5,249.16 353,240.5C 350.868,236.17 349.868,231.503 350,226.5C 348.667,225.833 347.667,224.833 347,223.5C 346.667,221.167 346.333,218.833 346,216.5C 339.95,209.161 335.283,201.161 332,192.5C 328.807,190.305 326.307,187.472 324.5,184C 322.866,183.506 321.199,183.34 319.5,183.5C 317.469,181.478 315.135,179.811 312.5,178.5C 311.526,176.915 310.026,175.915 308,175.5C 307.654,173.152 306.487,171.319 304.5,170C 301.092,168.004 297.425,166.837 293.5,166.5C 289.964,164.147 286.131,162.147 282,160.5C 282.193,158.918 283.026,157.584 284.5,156.5C 284.833,156.5 285.167,156.5 285.5,156.5C 292.311,155.406 297.644,157.572 301.5,163C 303.579,163.808 305.579,163.641 307.5,162.5C 304.93,161.777 302.597,160.61 300.5,159C 301.551,157.615 302.884,156.615 304.5,156C 303.167,155.333 303.167,154.667 304.5,154C 303.552,153.517 302.552,153.351 301.5,153.5C 301.33,152.178 301.663,151.011 302.5,150C 304.167,149.667 305.833,149.333 307.5,149C 311.185,145.033 315.351,141.866 320,139.5C 319.686,136.454 319.853,133.454 320.5,130.5C 324.416,123.967 328.249,117.3 332,110.5C 333.635,100.138 335.802,89.9714 338.5,80C 337.922,78.1886 337.422,76.3553 337,74.5C 335.989,73.6634 334.822,73.33 333.5,73.5C 333.666,69.4862 333.499,65.4862 333,61.5C 329.763,56.7014 328.596,51.5347 329.5,46C 327.277,45.3483 326.11,43.8483 326,41.5C 324.334,42.3402 324.167,41.8402 325.5,40C 324.833,39.6667 324.167,39.3333 323.5,39C 326.384,37.9626 327.05,36.1293 325.5,33.5C 323.574,32.9394 321.574,32.7727 319.5,33C 317.167,30 314.833,27 312.5,24C 314.878,23.4888 317.212,22.8221 319.5,22C 314.693,19.6176 309.693,17.6176 304.5,16C 308.833,15.3333 313.167,15.3333 317.5,16C 319.518,19.0996 322.185,20.2662 325.5,19.5C 329.107,20.8088 332.774,21.8088 336.5,22.5 Z"/></g>
<g><path style="opacity:0.008" fill="#feffd3" d="M 365.5,28.5 C 366.833,28.5 367.5,29.1667 367.5,30.5C 367.5,29.1667 366.833,28.5 365.5,28.5 Z"/></g>
<g><path style="opacity:0.757" fill="#e88d74" d="M 352.5,25.5 C 355.096,26.2653 357.763,26.5987 360.5,26.5C 361.833,26.5 362.5,27.1667 362.5,28.5C 363.167,29.8333 363.833,31.1667 364.5,32.5C 361.978,31.9885 359.645,30.9885 357.5,29.5C 357.5,29.1667 357.5,28.8333 357.5,28.5C 355.58,27.9348 353.913,26.9348 352.5,25.5 Z"/></g>
<g><path style="opacity:0.973" fill="#e25d75" d="M 192.5,13.5 C 192.389,14.1174 192.056,14.6174 191.5,15C 187.667,16.0338 184.001,17.2005 180.5,18.5C 169.968,21.5951 159.968,26.0951 150.5,32C 145.02,34.2893 139.353,36.1226 133.5,37.5C 133.5,36.8333 133.5,36.1667 133.5,35.5C 138.383,34.0602 143.049,32.0602 147.5,29.5C 148.993,28.8589 149.993,27.8589 150.5,26.5C 153.917,26.977 156.584,25.977 158.5,23.5C 160.781,23.9227 162.448,23.256 163.5,21.5C 166.238,21.2939 168.572,20.2939 170.5,18.5C 171.167,18.5 171.833,18.5 172.5,18.5C 173.167,18.5 173.833,18.5 174.5,18.5C 178.038,18.0241 181.038,16.6907 183.5,14.5C 186.57,14.6323 189.57,14.299 192.5,13.5 Z"/></g>
<g><path style="opacity:0.396" fill="#f5b0bb" d="M 150.5,26.5 C 149.993,27.8589 148.993,28.8589 147.5,29.5C 143.049,32.0602 138.383,34.0602 133.5,35.5C 134.525,33.7988 136.025,32.4655 138,31.5C 142.032,29.3975 146.198,27.7308 150.5,26.5 Z"/></g>
<g><path style="opacity:1" fill="#ed724e" d="M 357.5,29.5 C 359.645,30.9885 361.978,31.9885 364.5,32.5C 368.253,32.3083 371.587,33.3083 374.5,35.5C 375.167,36.8333 375.833,38.1667 376.5,39.5C 370.79,36.6535 364.79,34.3201 358.5,32.5C 357.614,31.675 357.281,30.675 357.5,29.5 Z"/></g>
<g><path style="opacity:0.239" fill="#f8bba6" d="M 362.5,28.5 C 363.5,28.5 364.5,28.5 365.5,28.5C 365.5,29.8333 366.167,30.5 367.5,30.5C 371.349,30.9181 374.349,32.5848 376.5,35.5C 375.833,35.5 375.167,35.5 374.5,35.5C 371.587,33.3083 368.253,32.3083 364.5,32.5C 363.833,31.1667 363.167,29.8333 362.5,28.5 Z"/></g>
<g><path style="opacity:0.231" fill="#fbd0ad" d="M 377.5,35.5 C 379.288,36.3604 380.955,37.3604 382.5,38.5C 379.715,39.0838 378.048,38.0838 377.5,35.5 Z"/></g>
<g><path style="opacity:0.42" fill="#f6afbc" d="M 133.5,35.5 C 133.5,36.1667 133.5,36.8333 133.5,37.5C 133.167,37.5 132.833,37.5 132.5,37.5C 128.518,40.1455 124.185,42.1455 119.5,43.5C 119.953,42.5416 120.619,41.7083 121.5,41C 125.424,38.8693 129.424,37.0359 133.5,35.5 Z"/></g>
<g><path style="opacity:0.069" fill="#f9b0bc" d="M 118.5,43.5 C 117.167,46.1667 115.167,48.1667 112.5,49.5C 112.5,48.8333 112.5,48.1667 112.5,47.5C 114.147,45.6736 116.147,44.3403 118.5,43.5 Z"/></g>
<g><path style="opacity:0.022" fill="#fedfe9" d="M 112.5,47.5 C 112.5,48.1667 112.5,48.8333 112.5,49.5C 111.833,49.5 111.167,49.5 110.5,49.5C 110.5,48.1667 111.167,47.5 112.5,47.5 Z"/></g>
<g><path style="opacity:0.957" fill="#e1637c" d="M 132.5,37.5 C 132.703,39.3904 132.037,40.8904 130.5,42C 127.393,43.6914 124.059,44.8581 120.5,45.5C 118.046,49.0567 114.713,51.0567 110.5,51.5C 110.5,50.8333 110.5,50.1667 110.5,49.5C 111.167,49.5 111.833,49.5 112.5,49.5C 115.167,48.1667 117.167,46.1667 118.5,43.5C 118.833,43.5 119.167,43.5 119.5,43.5C 124.185,42.1455 128.518,40.1455 132.5,37.5 Z"/></g>
<g><path style="opacity:0.118" fill="#f1a992" d="M 374.5,35.5 C 375.167,35.5 375.833,35.5 376.5,35.5C 376.833,35.5 377.167,35.5 377.5,35.5C 378.048,38.0838 379.715,39.0838 382.5,38.5C 391.27,43.7342 399.937,49.2342 408.5,55C 411.745,57.7494 414.745,60.5827 417.5,63.5C 412.92,61.5784 408.587,59.245 404.5,56.5C 402.855,55.5213 401.521,54.188 400.5,52.5C 395.574,50.2294 390.907,47.5627 386.5,44.5C 384.664,42.9908 382.664,41.4908 380.5,40C 379.207,39.51 377.873,39.3433 376.5,39.5C 375.833,38.1667 375.167,36.8333 374.5,35.5 Z"/></g>
<g><path style="opacity:1" fill="#f0465a" d="M 305.5,25.5 C 306.978,25.238 308.311,25.5713 309.5,26.5C 312.999,30.6717 315.666,35.3384 317.5,40.5C 323.188,45.6894 326.521,52.1894 327.5,60C 328.512,62.2427 329.845,64.0761 331.5,65.5C 331.5,68.8333 331.5,72.1667 331.5,75.5C 331.22,88.0795 329.386,100.413 326,112.5C 325.241,114.063 324.074,115.063 322.5,115.5C 324.118,110.053 324.952,104.387 325,98.5C 326.714,93.6936 328.214,88.8603 329.5,84C 329.333,82.1667 329.167,80.3333 329,78.5C 326.218,70.373 324.218,62.0397 323,53.5C 319.421,46.0026 315.087,39.0026 310,32.5C 309.667,31.1667 309.333,29.8333 309,28.5C 307.271,28.0257 306.105,27.0257 305.5,25.5 Z"/></g>
<g><path style="opacity:1" fill="#ed6f4e" d="M 386.5,44.5 C 390.907,47.5627 395.574,50.2294 400.5,52.5C 401.521,54.188 402.855,55.5213 404.5,56.5C 404.859,58.371 405.859,59.871 407.5,61C 411.723,63.271 415.723,65.771 419.5,68.5C 420.833,68.5 421.5,69.1667 421.5,70.5C 419.396,70.7989 417.396,70.4656 415.5,69.5C 411.829,65.5768 407.662,62.2435 403,59.5C 402.517,58.552 402.351,57.552 402.5,56.5C 401.167,56.5 399.833,56.5 398.5,56.5C 398.5,55.5 398.5,54.5 398.5,53.5C 392.857,52.8764 388.857,49.8764 386.5,44.5 Z"/></g>
<g><path style="opacity:0.957" fill="#e27d64" d="M 404.5,56.5 C 408.587,59.245 412.92,61.5784 417.5,63.5C 418.441,65.0495 419.107,66.7162 419.5,68.5C 415.723,65.771 411.723,63.271 407.5,61C 405.859,59.871 404.859,58.371 404.5,56.5 Z"/></g>
<g><path style="opacity:0.09" fill="#f3a5b5" d="M 110.5,49.5 C 110.5,50.1667 110.5,50.8333 110.5,51.5C 110.573,53.0269 109.906,54.0269 108.5,54.5C 107.022,54.238 105.689,54.5713 104.5,55.5C 98.7293,60.2889 92.7293,64.6223 86.5,68.5C 92.9945,60.347 100.994,54.0136 110.5,49.5 Z"/></g>
<g><path style="opacity:1" fill="#e45673" d="M 108.5,54.5 C 107.067,55.8333 105.733,57.3333 104.5,59C 100.963,60.2281 98.9628,62.7281 98.5,66.5C 97.448,66.3505 96.448,66.5172 95.5,67C 90.361,71.7353 85.0277,76.2353 79.5,80.5C 78.3951,81.6005 77.0618,82.2671 75.5,82.5C 76.4694,79.8868 77.8027,77.5534 79.5,75.5C 80.675,75.719 81.675,75.3857 82.5,74.5C 83.8592,72.4822 85.1925,70.4822 86.5,68.5C 92.7293,64.6223 98.7293,60.2889 104.5,55.5C 105.689,54.5713 107.022,54.238 108.5,54.5 Z"/></g>
<g><path style="opacity:0.076" fill="#f3ad98" d="M 417.5,63.5 C 418.583,63.5394 419.583,63.8728 420.5,64.5C 422.833,67.5 425.5,70.1667 428.5,72.5C 429.127,73.4168 429.461,74.4168 429.5,75.5C 426.869,73.8876 424.202,72.221 421.5,70.5C 421.5,69.1667 420.833,68.5 419.5,68.5C 419.107,66.7162 418.441,65.0495 417.5,63.5 Z"/></g>
<g><path style="opacity:0.074" fill="#fab9c8" d="M 86.5,68.5 C 85.1925,70.4822 83.8592,72.4822 82.5,74.5C 81.675,75.3857 80.675,75.719 79.5,75.5C 80.7288,72.0261 83.0622,69.6928 86.5,68.5 Z"/></g>
<g><path style="opacity:0.675" fill="#e38160" d="M 421.5,70.5 C 424.202,72.221 426.869,73.8876 429.5,75.5C 431.197,77.5534 432.531,79.8868 433.5,82.5C 427.812,80.1458 423.812,76.1458 421.5,70.5 Z"/></g>
<g><path style="opacity:0.18" fill="#f7b4c1" d="M 79.5,75.5 C 77.8027,77.5534 76.4694,79.8868 75.5,82.5C 74.1667,82.8333 72.8333,83.1667 71.5,83.5C 73.2973,79.8526 75.964,77.1859 79.5,75.5 Z"/></g>
<g><path style="opacity:0.04" fill="#f8b4a0" d="M 429.5,75.5 C 430.583,75.5394 431.583,75.8728 432.5,76.5C 438.563,81.8938 443.896,87.8938 448.5,94.5C 444.202,91.5367 440.202,88.2034 436.5,84.5C 435.778,83.4489 434.778,82.7822 433.5,82.5C 432.531,79.8868 431.197,77.5534 429.5,75.5 Z"/></g>
<g><path style="opacity:0.835" fill="#da6880" d="M 75.5,82.5 C 74.2972,84.3955 73.1305,86.3955 72,88.5C 70.9887,89.3366 69.8221,89.67 68.5,89.5C 68.8333,88.1667 69.1667,86.8333 69.5,85.5C 69.5,84.1667 70.1667,83.5 71.5,83.5C 72.8333,83.1667 74.1667,82.8333 75.5,82.5 Z"/></g>
<g><path style="opacity:0.157" fill="#f3b0c3" d="M 69.5,85.5 C 69.1667,86.8333 68.8333,88.1667 68.5,89.5C 67.5,89.5 66.5,89.5 65.5,89.5C 66.5,87.8333 67.8333,86.5 69.5,85.5 Z"/></g>
<g><path style="opacity:0.702" fill="#e27288" d="M 65.5,89.5 C 66.5,89.5 67.5,89.5 68.5,89.5C 67.588,91.5952 66.4213,93.5952 65,95.5C 64.1841,96.8228 63.0174,97.4894 61.5,97.5C 63.6037,95.6282 64.937,93.2948 65.5,90.5C 65.5,90.1667 65.5,89.8333 65.5,89.5 Z"/></g>
<g><path style="opacity:0.259" fill="#f5a8b7" d="M 65.5,90.5 C 64.937,93.2948 63.6037,95.6282 61.5,97.5C 60.3951,98.6005 59.0618,99.2671 57.5,99.5C 57.5394,98.4168 57.8728,97.4168 58.5,96.5C 61.2177,94.7701 63.551,92.7701 65.5,90.5 Z"/></g>
<g><path style="opacity:0.443" fill="#e37589" d="M 61.5,97.5 C 61.6495,98.552 61.4828,99.552 61,100.5C 58.3184,103.527 55.985,106.861 54,110.5C 52.871,112.141 51.371,113.141 49.5,113.5C 50.8333,110.833 52.1667,108.167 53.5,105.5C 53.5,105.167 53.5,104.833 53.5,104.5C 56.5345,104.817 57.5345,103.817 56.5,101.5C 56.3284,100.508 56.6618,99.8417 57.5,99.5C 59.0618,99.2671 60.3951,98.6005 61.5,97.5 Z"/></g>
<g><path style="opacity:0.04" fill="#fcb3bf" d="M 56.5,101.5 C 57.5345,103.817 56.5345,104.817 53.5,104.5C 53.8102,102.856 54.8102,101.856 56.5,101.5 Z"/></g>
<g><path style="opacity:1" fill="#f8746c" d="M 331.5,75.5 C 332.809,77.5706 333.475,80.0706 333.5,83C 333.051,89.837 332.551,96.6704 332,103.5C 329.609,109.435 326.776,115.101 323.5,120.5C 322.833,120.5 322.167,120.5 321.5,120.5C 322.038,118.883 322.371,117.216 322.5,115.5C 324.074,115.063 325.241,114.063 326,112.5C 329.386,100.413 331.22,88.0795 331.5,75.5 Z"/></g>
<g><path style="opacity:0.863" fill="#e38467" d="M 436.5,84.5 C 440.202,88.2034 444.202,91.5367 448.5,94.5C 451.835,100.177 455.168,105.844 458.5,111.5C 454.755,110.088 452.422,107.421 451.5,103.5C 450.479,101.812 449.145,100.479 447.5,99.5C 444.092,94.3002 440.426,89.3002 436.5,84.5 Z"/></g>
<g><path style="opacity:1" fill="#f36c46" d="M 447.5,99.5 C 449.145,100.479 450.479,101.812 451.5,103.5C 452.422,107.421 454.755,110.088 458.5,111.5C 460.236,115.26 462.736,118.594 466,121.5C 466.49,122.793 466.657,124.127 466.5,125.5C 468.597,129.372 470.931,133.039 473.5,136.5C 474.022,141.962 476.355,146.295 480.5,149.5C 480.5,149.833 480.5,150.167 480.5,150.5C 480.5,150.833 480.5,151.167 480.5,151.5C 478.783,149.638 476.783,147.971 474.5,146.5C 473.748,143.737 472.748,141.07 471.5,138.5C 470.675,137.614 469.675,137.281 468.5,137.5C 469.613,132.064 467.78,128.064 463,125.5C 459.797,120.941 456.964,116.107 454.5,111C 452.689,111.289 451.356,112.456 450.5,114.5C 452.05,116.428 453.717,118.261 455.5,120C 452.313,121.901 449.813,121.067 448,117.5C 447.655,119.201 448.322,120.534 450,121.5C 451.48,123.663 451.48,125.663 450,127.5C 449.125,124.785 447.292,123.452 444.5,123.5C 444.411,119.7 445.078,116.034 446.5,112.5C 445.844,110.547 445.511,108.547 445.5,106.5C 446.5,106.5 447.5,106.5 448.5,106.5C 448.552,104.097 448.219,101.764 447.5,99.5 Z"/></g>
<g><path style="opacity:0.169" fill="#f6b0c0" d="M 53.5,105.5 C 52.1667,108.167 50.8333,110.833 49.5,113.5C 49.5,114.167 49.5,114.833 49.5,115.5C 46.8652,116.539 44.8652,118.206 43.5,120.5C 44.9796,114.281 48.313,109.281 53.5,105.5 Z"/></g>
<g><path style="opacity:1" fill="#eb4365" d="M 79.5,80.5 C 76.9249,84.4188 73.9249,88.0855 70.5,91.5C 69.6811,95.3184 67.5144,97.9851 64,99.5C 62.5699,102.353 61.7366,105.353 61.5,108.5C 59.8561,108.286 58.3561,108.62 57,109.5C 56.6397,111.421 55.8064,113.088 54.5,114.5C 55.9162,119.31 54.2495,120.643 49.5,118.5C 49.5,117.5 49.5,116.5 49.5,115.5C 49.5,114.833 49.5,114.167 49.5,113.5C 51.371,113.141 52.871,112.141 54,110.5C 55.985,106.861 58.3184,103.527 61,100.5C 61.4828,99.552 61.6495,98.552 61.5,97.5C 63.0174,97.4894 64.1841,96.8228 65,95.5C 66.4213,93.5952 67.588,91.5952 68.5,89.5C 69.8221,89.67 70.9887,89.3366 72,88.5C 73.1305,86.3955 74.2972,84.3955 75.5,82.5C 77.0618,82.2671 78.3951,81.6005 79.5,80.5 Z"/></g>
<g><path style="opacity:1" fill="#e65572" d="M 49.5,115.5 C 49.5,116.5 49.5,117.5 49.5,118.5C 49.5,120.167 49.5,121.833 49.5,123.5C 47.5165,123.383 45.8498,124.05 44.5,125.5C 43.158,129.167 40.8246,131.834 37.5,133.5C 39.4994,129.167 41.4994,124.834 43.5,120.5C 44.8652,118.206 46.8652,116.539 49.5,115.5 Z"/></g>
<g><path style="opacity:0.659" fill="#e7876d" d="M 466.5,125.5 C 469.536,126.812 471.702,129.146 473,132.5C 473.49,133.793 473.657,135.127 473.5,136.5C 470.931,133.039 468.597,129.372 466.5,125.5 Z"/></g>
<g><path style="opacity:1" fill="#ee4460" d="M 322.5,115.5 C 322.371,117.216 322.038,118.883 321.5,120.5C 314.903,131.931 306.07,141.264 295,148.5C 293.234,149.233 291.401,149.567 289.5,149.5C 289.5,150.5 289.5,151.5 289.5,152.5C 287.167,152.5 284.833,152.5 282.5,152.5C 282.167,152.5 281.833,152.5 281.5,152.5C 283.168,150.521 283.834,148.188 283.5,145.5C 286.852,146.553 290.185,146.553 293.5,145.5C 296.906,140.56 301.573,137.227 307.5,135.5C 308.309,133.929 308.643,132.262 308.5,130.5C 309.833,130.5 311.167,130.5 312.5,130.5C 312.003,128.403 311.67,126.57 311.5,125C 314.876,123.95 317.876,122.45 320.5,120.5C 320.12,118.302 320.787,116.635 322.5,115.5 Z"/></g>
<g><path style="opacity:0.724" fill="#e57e60" d="M 473.5,136.5 C 474.859,137.007 475.859,138.007 476.5,139.5C 477.651,142.963 478.984,146.296 480.5,149.5C 476.355,146.295 474.022,141.962 473.5,136.5 Z"/></g>
<g><path style="opacity:0.12" fill="#f4a8b7" d="M 43.5,120.5 C 41.4994,124.834 39.4994,129.167 37.5,133.5C 37.5,134.167 37.5,134.833 37.5,135.5C 35.4316,137.758 33.4316,140.258 31.5,143C 30.7665,144.766 30.4332,146.599 30.5,148.5C 29.5,148.5 28.5,148.5 27.5,148.5C 31.3814,139.749 35.5481,131.083 40,122.5C 40.8159,121.177 41.9826,120.511 43.5,120.5 Z"/></g>
<g><path style="opacity:1" fill="#f58279" d="M 321.5,120.5 C 322.167,120.5 322.833,120.5 323.5,120.5C 315.042,136.958 302.376,148.958 285.5,156.5C 285.167,156.5 284.833,156.5 284.5,156.5C 281.888,157.371 279.221,158.037 276.5,158.5C 276.5,159.833 276.5,161.167 276.5,162.5C 278.415,162.216 280.081,162.549 281.5,163.5C 279.167,163.5 276.833,163.5 274.5,163.5C 273.833,163.5 273.167,163.5 272.5,163.5C 272.229,161.57 271.229,160.236 269.5,159.5C 269.804,158.85 270.137,158.183 270.5,157.5C 274.476,156.614 278.476,155.948 282.5,155.5C 282.5,154.5 282.5,153.5 282.5,152.5C 284.833,152.5 287.167,152.5 289.5,152.5C 289.5,151.5 289.5,150.5 289.5,149.5C 291.401,149.567 293.234,149.233 295,148.5C 306.07,141.264 314.903,131.931 321.5,120.5 Z"/></g>
<g><path style="opacity:0.067" fill="#f3b39e" d="M 448.5,94.5 C 476.667,127.507 494.667,165.507 502.5,208.5C 501.89,209.391 501.557,210.391 501.5,211.5C 500.833,211.5 500.167,211.5 499.5,211.5C 498.475,201.024 496.475,190.69 493.5,180.5C 492.943,178.668 491.943,177.335 490.5,176.5C 490.5,176.167 490.5,175.833 490.5,175.5C 490.279,170.13 488.613,165.464 485.5,161.5C 485.495,156.976 483.828,153.309 480.5,150.5C 480.5,150.167 480.5,149.833 480.5,149.5C 478.984,146.296 477.651,142.963 476.5,139.5C 475.859,138.007 474.859,137.007 473.5,136.5C 473.657,135.127 473.49,133.793 473,132.5C 471.702,129.146 469.536,126.812 466.5,125.5C 466.657,124.127 466.49,122.793 466,121.5C 462.736,118.594 460.236,115.26 458.5,111.5C 455.168,105.844 451.835,100.177 448.5,94.5 Z"/></g>
<g><path style="opacity:1" fill="#e64f6a" d="M 281.5,152.5 C 281.833,152.5 282.167,152.5 282.5,152.5C 282.5,153.5 282.5,154.5 282.5,155.5C 278.476,155.948 274.476,156.614 270.5,157.5C 270.137,158.183 269.804,158.85 269.5,159.5C 264.833,159.5 260.167,159.5 255.5,159.5C 249.824,159.334 244.157,159.501 238.5,160C 237.584,160.278 236.918,160.778 236.5,161.5C 234.821,161.285 233.821,161.952 233.5,163.5C 230.626,163.451 227.792,163.784 225,164.5C 223.624,164.684 222.791,165.351 222.5,166.5C 217.86,166.317 213.86,167.65 210.5,170.5C 208.177,172.328 205.511,173.661 202.5,174.5C 201.05,175.85 200.383,177.516 200.5,179.5C 199.609,178.89 198.609,178.557 197.5,178.5C 198.568,175.925 200.235,173.758 202.5,172C 205.527,169.318 208.861,166.985 212.5,165C 218.042,163.122 223.709,161.788 229.5,161C 230.833,160 232.167,159 233.5,158C 244.167,157.667 254.833,157.333 265.5,157C 270.934,155.502 276.268,154.002 281.5,152.5 Z"/></g>
<g><path style="opacity:0.863" fill="#e48066" d="M 480.5,150.5 C 483.828,153.309 485.495,156.976 485.5,161.5C 483.817,158.134 482.15,154.801 480.5,151.5C 480.5,151.167 480.5,150.833 480.5,150.5 Z"/></g>
<g><path style="opacity:0.882" fill="#e05d75" d="M 37.5,135.5 C 34.8323,140.859 32.6656,146.526 31,152.5C 28.1862,156.628 25.8529,160.961 24,165.5C 20.1728,177.193 16.6728,188.859 13.5,200.5C 13.3424,197.098 13.6758,193.764 14.5,190.5C 14.5533,187.86 15.22,185.36 16.5,183C 16.472,181.93 16.1386,181.097 15.5,180.5C 15.2627,179.209 15.596,178.209 16.5,177.5C 17.4972,177.53 18.1639,177.03 18.5,176C 19.0317,173.004 20.0317,170.171 21.5,167.5C 21.4573,166.584 21.1239,165.917 20.5,165.5C 20.5,165.167 20.5,164.833 20.5,164.5C 21.5,164.5 22.5,164.5 23.5,164.5C 24.5365,159.425 25.8699,154.425 27.5,149.5C 27.5,149.167 27.5,148.833 27.5,148.5C 28.5,148.5 29.5,148.5 30.5,148.5C 30.4332,146.599 30.7665,144.766 31.5,143C 33.4316,140.258 35.4316,137.758 37.5,135.5 Z"/></g>
<g><path style="opacity:0.454" fill="#f6b4ac" d="M 255.5,159.5 C 260.167,159.5 264.833,159.5 269.5,159.5C 271.229,160.236 272.229,161.57 272.5,163.5C 270.833,163.5 269.167,163.5 267.5,163.5C 265.721,161.656 263.388,160.99 260.5,161.5C 258.833,161.5 257.167,161.5 255.5,161.5C 255.5,160.833 255.5,160.167 255.5,159.5 Z"/></g>
<g><path style="opacity:0.239" fill="#e9929c" d="M 255.5,159.5 C 255.5,160.167 255.5,160.833 255.5,161.5C 252.833,161.5 250.167,161.5 247.5,161.5C 243.833,161.5 240.167,161.5 236.5,161.5C 236.918,160.778 237.584,160.278 238.5,160C 244.157,159.501 249.824,159.334 255.5,159.5 Z"/></g>
<g><path style="opacity:0.052" fill="#ffdade" d="M 236.5,161.5 C 240.167,161.5 243.833,161.5 247.5,161.5C 247.389,162.117 247.056,162.617 246.5,163C 242.179,163.499 237.846,163.666 233.5,163.5C 233.821,161.952 234.821,161.285 236.5,161.5 Z"/></g>
<g><path style="opacity:0.048" fill="#ffebd7" d="M 260.5,161.5 C 263.388,160.99 265.721,161.656 267.5,163.5C 264.612,164.01 262.279,163.344 260.5,161.5 Z"/></g>
<g><path style="opacity:0.139" fill="#f2a7b1" d="M 27.5,149.5 C 25.8699,154.425 24.5365,159.425 23.5,164.5C 22.5,164.5 21.5,164.5 20.5,164.5C 22.4412,160.185 24.1079,155.685 25.5,151C 25.8361,149.97 26.5028,149.47 27.5,149.5 Z"/></g>
<g><path style="opacity:0.122" fill="#f7acb9" d="M 233.5,163.5 C 230.314,165.874 226.647,166.874 222.5,166.5C 222.791,165.351 223.624,164.684 225,164.5C 227.792,163.784 230.626,163.451 233.5,163.5 Z"/></g>
<g><path style="opacity:0.122" fill="#f0b8a2" d="M 274.5,163.5 C 276.833,163.5 279.167,163.5 281.5,163.5C 283.531,163.972 285.198,164.972 286.5,166.5C 283.468,166.495 280.468,166.162 277.5,165.5C 275.97,165.36 274.97,164.693 274.5,163.5 Z"/></g>
<g><path style="opacity:1" fill="#e87657" d="M 284.5,156.5 C 283.026,157.584 282.193,158.918 282,160.5C 286.131,162.147 289.964,164.147 293.5,166.5C 291.167,166.5 288.833,166.5 286.5,166.5C 285.198,164.972 283.531,163.972 281.5,163.5C 280.081,162.549 278.415,162.216 276.5,162.5C 276.5,161.167 276.5,159.833 276.5,158.5C 279.221,158.037 281.888,157.371 284.5,156.5 Z"/></g>
<g><path style="opacity:0.855" fill="#e47f5e" d="M 485.5,161.5 C 488.613,165.464 490.279,170.13 490.5,175.5C 487.666,171.336 485.999,166.669 485.5,161.5 Z"/></g>
<g><path style="opacity:0.047" fill="#f5a6ba" d="M 20.5,165.5 C 21.1239,165.917 21.4573,166.584 21.5,167.5C 20.0317,170.171 19.0317,173.004 18.5,176C 18.1639,177.03 17.4972,177.53 16.5,177.5C 17.0166,173.778 17.85,170.112 19,166.5C 19.3826,165.944 19.8826,165.611 20.5,165.5 Z"/></g>
<g><path style="opacity:0.365" fill="#f4b4a6" d="M 286.5,166.5 C 288.833,166.5 291.167,166.5 293.5,166.5C 294.141,167.482 294.807,168.482 295.5,169.5C 299.085,170.626 302.418,172.292 305.5,174.5C 306.127,175.417 306.461,176.417 306.5,177.5C 301.464,174.404 296.131,171.904 290.5,170C 288.681,169.26 287.348,168.093 286.5,166.5 Z"/></g>
<g><path style="opacity:0.243" fill="#e88395" d="M 222.5,166.5 C 222.179,168.048 221.179,168.715 219.5,168.5C 217.517,168.157 216.183,168.824 215.5,170.5C 213.833,170.5 212.167,170.5 210.5,170.5C 213.86,167.65 217.86,166.317 222.5,166.5 Z"/></g>
<g><path style="opacity:0.008" fill="#fedae0" d="M 219.5,168.5 C 218.817,170.176 217.483,170.843 215.5,170.5C 216.183,168.824 217.517,168.157 219.5,168.5 Z"/></g>
<g><path style="opacity:0.984" fill="#e97d63" d="M 293.5,166.5 C 297.425,166.837 301.092,168.004 304.5,170C 306.487,171.319 307.654,173.152 308,175.5C 310.026,175.915 311.526,176.915 312.5,178.5C 310.435,178.483 308.435,178.15 306.5,177.5C 306.461,176.417 306.127,175.417 305.5,174.5C 302.418,172.292 299.085,170.626 295.5,169.5C 294.807,168.482 294.141,167.482 293.5,166.5 Z"/></g>
<g><path style="opacity:0.12" fill="#f4b0b9" d="M 210.5,170.5 C 212.167,170.5 213.833,170.5 215.5,170.5C 210.525,173.46 205.525,176.46 200.5,179.5C 200.383,177.516 201.05,175.85 202.5,174.5C 205.511,173.661 208.177,172.328 210.5,170.5 Z"/></g>
<g><path style="opacity:1" fill="#e1536d" d="M 97.5,178.5 C 89.8261,178.334 82.1594,178.5 74.5,179C 72.9419,179.21 71.6085,179.71 70.5,180.5C 65.0772,181.14 59.7439,182.14 54.5,183.5C 55.6002,182.442 56.9336,181.608 58.5,181C 68.1191,178.185 77.9525,176.685 88,176.5C 91.4774,176.328 94.644,176.994 97.5,178.5 Z"/></g>
<g><path style="opacity:1" fill="#9f364d" d="M 76.5,180.5 C 88.6329,179.564 100.3,181.231 111.5,185.5C 129.208,192.621 142.541,204.788 151.5,222C 152.078,223.811 152.578,225.645 153,227.5C 153.671,228.252 154.504,228.586 155.5,228.5C 155.5,229.167 155.5,229.833 155.5,230.5C 155.636,233.35 155.969,236.183 156.5,239C 156.608,240.681 157.275,241.848 158.5,242.5C 158.192,256.89 158.859,271.223 160.5,285.5C 161.5,285.5 162.5,285.5 163.5,285.5C 163.5,286.833 163.5,288.167 163.5,289.5C 163.337,291.857 163.503,294.19 164,296.5C 168.038,300.878 170.038,305.878 170,311.5C 171.436,315.969 174.269,317.303 178.5,315.5C 178.5,316.5 178.5,317.5 178.5,318.5C 179.5,318.5 180.5,318.5 181.5,318.5C 181.833,318.5 182.167,318.5 182.5,318.5C 182.104,321.482 182.771,324.149 184.5,326.5C 188.644,329.476 192.644,332.643 196.5,336C 194.137,336.589 193.137,338.089 193.5,340.5C 195.827,340.753 197.827,340.086 199.5,338.5C 206.256,342.701 213.589,345.701 221.5,347.5C 223.003,348.59 223.336,349.757 222.5,351C 225.133,350.747 227.8,350.747 230.5,351C 232.437,351.122 233.77,351.955 234.5,353.5C 230.331,354.247 226.331,355.58 222.5,357.5C 221.007,358.141 220.007,359.141 219.5,360.5C 216.24,361.774 213.24,363.44 210.5,365.5C 207.476,367.31 204.142,368.477 200.5,369C 196.976,374.614 192.476,379.114 187,382.5C 185.846,386.447 185.013,390.447 184.5,394.5C 182.677,397.163 181.677,400.163 181.5,403.5C 178.871,404.333 177.537,406.167 177.5,409C 176.704,415.865 175.704,422.699 174.5,429.5C 176.441,437.717 177.441,446.051 177.5,454.5C 178.833,454.5 180.167,454.5 181.5,454.5C 181.34,456.199 181.506,457.866 182,459.5C 185.211,465.494 187.544,471.827 189,478.5C 190.789,480.229 192.956,480.896 195.5,480.5C 195.5,482.833 195.5,485.167 195.5,487.5C 198.167,487.5 200.833,487.5 203.5,487.5C 204.18,491.322 206.513,492.989 210.5,492.5C 210.721,494.664 211.721,496.33 213.5,497.5C 211.693,498.615 209.693,499.281 207.5,499.5C 202.968,497.888 198.301,497.221 193.5,497.5C 192.833,497.5 192.167,497.5 191.5,497.5C 191.5,496.5 191.5,495.5 191.5,494.5C 184.41,495.191 178.076,493.358 172.5,489C 170.5,488.667 168.5,488.333 166.5,488C 162.618,486.362 158.952,484.362 155.5,482C 149.245,479.707 142.911,477.54 136.5,475.5C 132.318,469.577 126.651,466.577 119.5,466.5C 118.155,462.45 115.489,459.783 111.5,458.5C 109.787,457.122 108.453,455.455 107.5,453.5C 102.878,452.692 99.5443,450.192 97.5,446C 95.8333,445.167 94.1667,444.333 92.5,443.5C 91.4452,440.822 90.1118,438.322 88.5,436C 86.5273,435.505 84.5273,435.338 82.5,435.5C 82.415,433.071 81.415,431.071 79.5,429.5C 71.3585,422.913 64.8585,414.913 60,405.5C 58.2658,403.549 56.0991,402.549 53.5,402.5C 52.5,402.5 51.5,402.5 50.5,402.5C 50.3713,400.784 50.038,399.117 49.5,397.5C 48.2615,395.381 46.7615,393.381 45,391.5C 44.7701,388.032 43.2701,385.366 40.5,383.5C 38.5923,382.514 37.5923,380.848 37.5,378.5C 36.3999,375.958 35.0666,373.625 33.5,371.5C 32.3061,368.549 31.3061,365.549 30.5,362.5C 30.3146,360.804 29.4813,359.471 28,358.5C 27.6489,353.651 26.8155,348.984 25.5,344.5C 24.5144,342.156 23.1811,339.989 21.5,338C 21.4393,336.289 22.1059,334.956 23.5,334C 23.2549,332.089 23.2549,330.089 23.5,328C 22.9103,326.491 22.2436,324.991 21.5,323.5C 20.8076,324.025 20.3076,324.692 20,325.5C 15.4277,319.172 14.261,312.172 16.5,304.5C 14.7839,304.371 13.1172,304.038 11.5,303.5C 11.185,295.58 11.5183,287.747 12.5,280C 11.6721,279.085 10.6721,278.419 9.5,278C 9.95735,277.586 10.2907,277.086 10.5,276.5C 8.74318,265.26 8.07652,253.926 8.5,242.5C 8.5,240.833 8.5,239.167 8.5,237.5C 9.16596,234.642 9.83262,231.642 10.5,228.5C 12.7725,227.625 13.7725,225.958 13.5,223.5C 14.2237,220.659 15.3904,217.992 17,215.5C 17.8159,214.177 18.9826,213.511 20.5,213.5C 25.1254,212.208 28.1254,209.208 29.5,204.5C 33.6092,201.894 37.2759,198.727 40.5,195C 42.4211,194.64 44.0878,193.806 45.5,192.5C 47.5743,194.828 48.5743,194.161 48.5,190.5C 50.8333,189.833 53.1667,189.167 55.5,188.5C 55.33,187.178 55.6634,186.011 56.5,185C 61.1667,184.333 65.8333,183.667 70.5,183C 72.8516,182.76 74.8516,181.927 76.5,180.5 Z"/></g>
<g><path style="opacity:0.036" fill="#f8aebc" d="M 197.5,178.5 C 198.609,178.557 199.609,178.89 200.5,179.5C 197.749,182.92 194.416,185.587 190.5,187.5C 190.709,186.078 191.209,184.745 192,183.5C 194.646,182.635 196.48,180.968 197.5,178.5 Z"/></g>
<g><path style="opacity:1" fill="#de687c" d="M 97.5,178.5 C 101.443,179.486 105.443,180.152 109.5,180.5C 110.59,181.857 111.924,182.857 113.5,183.5C 112.167,183.5 111.5,184.167 111.5,185.5C 100.3,181.231 88.6329,179.564 76.5,180.5C 74.5,180.5 72.5,180.5 70.5,180.5C 71.6085,179.71 72.9419,179.21 74.5,179C 82.1594,178.5 89.8261,178.334 97.5,178.5 Z"/></g>
<g><path style="opacity:0.11" fill="#f5adb9" d="M 15.5,180.5 C 16.1386,181.097 16.472,181.93 16.5,183C 15.22,185.36 14.5533,187.86 14.5,190.5C 13.5,190.5 12.5,190.5 11.5,190.5C 12.4279,187.546 13.2612,184.546 14,181.5C 14.3826,180.944 14.8826,180.611 15.5,180.5 Z"/></g>
<g><path style="opacity:0.133" fill="#f2b19b" d="M 306.5,177.5 C 308.435,178.15 310.435,178.483 312.5,178.5C 315.135,179.811 317.469,181.478 319.5,183.5C 322.478,187.724 326.144,191.39 330.5,194.5C 331.746,198.722 333.412,202.722 335.5,206.5C 329.734,200.067 324.067,193.4 318.5,186.5C 314.175,183.829 310.175,180.829 306.5,177.5 Z"/></g>
<g><path style="opacity:1" fill="#ea4363" d="M 109.5,180.5 C 105.443,180.152 101.443,179.486 97.5,178.5C 94.644,176.994 91.4774,176.328 88,176.5C 77.9525,176.685 68.1191,178.185 58.5,181C 56.9336,181.608 55.6002,182.442 54.5,183.5C 54.1667,183.5 53.8333,183.5 53.5,183.5C 46.8988,186.144 40.5654,189.144 34.5,192.5C 34.5,191.5 34.5,190.5 34.5,189.5C 39.7941,187.332 44.7941,184.499 49.5,181C 56.3825,179.484 63.0491,177.484 69.5,175C 79.5,174.333 89.5,174.333 99.5,175C 102.759,177.32 106.092,179.154 109.5,180.5 Z"/></g>
<g><path style="opacity:0.999" fill="#e77653" d="M 490.5,176.5 C 491.943,177.335 492.943,178.668 493.5,180.5C 496.475,190.69 498.475,201.024 499.5,211.5C 498.199,210.36 497.032,209.027 496,207.5C 495.667,203.167 495.333,198.833 495,194.5C 494.586,194.043 494.086,193.709 493.5,193.5C 492.797,187.682 491.797,182.016 490.5,176.5 Z"/></g>
<g><path style="opacity:1" fill="#a9354b" d="M 70.5,180.5 C 72.5,180.5 74.5,180.5 76.5,180.5C 74.8516,181.927 72.8516,182.76 70.5,183C 65.8333,183.667 61.1667,184.333 56.5,185C 55.6634,186.011 55.33,187.178 55.5,188.5C 53.1667,189.167 50.8333,189.833 48.5,190.5C 48.5743,194.161 47.5743,194.828 45.5,192.5C 44.0878,193.806 42.4211,194.64 40.5,195C 37.2759,198.727 33.6092,201.894 29.5,204.5C 28.1254,209.208 25.1254,212.208 20.5,213.5C 21.6154,210.113 23.2821,207.113 25.5,204.5C 29.5412,202.124 32.5412,198.791 34.5,194.5C 40.5604,191.686 46.5604,188.686 52.5,185.5C 53.2975,185.043 53.6309,184.376 53.5,183.5C 53.8333,183.5 54.1667,183.5 54.5,183.5C 59.7439,182.14 65.0772,181.14 70.5,180.5 Z"/></g>
<g><path style="opacity:0.49" fill="#f6b4c0" d="M 190.5,187.5 C 190.461,188.583 190.127,189.583 189.5,190.5C 186.782,192.23 184.449,194.23 182.5,196.5C 182.833,195.167 183.167,193.833 183.5,192.5C 185.572,190.616 187.905,188.949 190.5,187.5 Z"/></g>
<g><path style="opacity:1" fill="#e74d68" d="M 118.5,185.5 C 120.857,185.337 123.19,185.503 125.5,186C 127.527,188.681 130.193,190.347 133.5,191C 137.165,194.218 139.832,198.052 141.5,202.5C 134.109,196.439 126.442,190.773 118.5,185.5 Z"/></g>
<g><path style="opacity:0.804" fill="#e05a74" d="M 197.5,178.5 C 196.48,180.968 194.646,182.635 192,183.5C 191.209,184.745 190.709,186.078 190.5,187.5C 187.905,188.949 185.572,190.616 183.5,192.5C 180.217,194.087 178.883,196.421 179.5,199.5C 179.5,200.167 179.5,200.833 179.5,201.5C 174.984,201.481 172.984,203.814 173.5,208.5C 173.5,208.833 173.5,209.167 173.5,209.5C 168.72,212.783 166.387,217.449 166.5,223.5C 165.5,223.5 164.5,223.5 163.5,223.5C 165.204,219.687 166.537,215.687 167.5,211.5C 171.205,209.631 173.039,206.631 173,202.5C 178.773,193.728 185.606,185.895 193.5,179C 194.793,178.51 196.127,178.343 197.5,178.5 Z"/></g>
<g><path style="opacity:0.449" fill="#e4798d" d="M 11.5,191.5 C 11.5,191.167 11.5,190.833 11.5,190.5C 12.5,190.5 13.5,190.5 14.5,190.5C 13.6758,193.764 13.3424,197.098 13.5,200.5C 12.8333,200.833 12.1667,201.167 11.5,201.5C 12.4435,198.001 12.4435,194.668 11.5,191.5 Z"/></g>
<g><path style="opacity:1" fill="#de4e68" d="M 53.5,183.5 C 53.6309,184.376 53.2975,185.043 52.5,185.5C 46.5604,188.686 40.5604,191.686 34.5,194.5C 32.5412,198.791 29.5412,202.124 25.5,204.5C 25.3505,203.448 25.5172,202.448 26,201.5C 28.3622,197.973 31.1955,194.973 34.5,192.5C 40.5654,189.144 46.8988,186.144 53.5,183.5 Z"/></g>
<g><path style="opacity:0.114" fill="#f28ea1" d="M 183.5,192.5 C 183.167,193.833 182.833,195.167 182.5,196.5C 182.19,198.144 181.19,199.144 179.5,199.5C 178.883,196.421 180.217,194.087 183.5,192.5 Z"/></g>
<g><path style="opacity:1" fill="#ea7a8d" d="M 113.5,183.5 C 115.167,184.167 116.833,184.833 118.5,185.5C 126.442,190.773 134.109,196.439 141.5,202.5C 141.709,203.922 142.209,205.255 143,206.5C 149.481,212.456 153.648,219.789 155.5,228.5C 154.504,228.586 153.671,228.252 153,227.5C 152.578,225.645 152.078,223.811 151.5,222C 142.541,204.788 129.208,192.621 111.5,185.5C 111.5,184.167 112.167,183.5 113.5,183.5 Z"/></g>
<g><path style="opacity:0.141" fill="#f8b6c2" d="M 11.5,191.5 C 12.4435,194.668 12.4435,198.001 11.5,201.5C 11.5,203.167 11.5,204.833 11.5,206.5C 10.5,206.5 9.5,206.5 8.5,206.5C 8.88481,201.354 9.88481,196.354 11.5,191.5 Z"/></g>
<g><path style="opacity:1" fill="#ee4666" d="M 141.5,202.5 C 145.026,204.033 148.192,206.366 151,209.5C 151.748,207.668 152.748,206.001 154,204.5C 155.355,213.041 156.522,221.707 157.5,230.5C 156.833,230.5 156.167,230.5 155.5,230.5C 155.5,229.833 155.5,229.167 155.5,228.5C 153.648,219.789 149.481,212.456 143,206.5C 142.209,205.255 141.709,203.922 141.5,202.5 Z"/></g>
<g><path style="opacity:0.153" fill="#f19da8" d="M 179.5,201.5 C 178.332,204.593 176.332,206.926 173.5,208.5C 172.984,203.814 174.984,201.481 179.5,201.5 Z"/></g>
<g><path style="opacity:0.122" fill="#fccfc0" d="M 502.5,208.5 C 503.473,210.948 503.806,213.615 503.5,216.5C 502.833,216.5 502.167,216.5 501.5,216.5C 501.5,214.833 501.5,213.167 501.5,211.5C 501.557,210.391 501.89,209.391 502.5,208.5 Z"/></g>
<g><path style="opacity:0.984" fill="#e97856" d="M 319.5,183.5 C 321.199,183.34 322.866,183.506 324.5,184C 326.307,187.472 328.807,190.305 332,192.5C 335.283,201.161 339.95,209.161 346,216.5C 346.333,218.833 346.667,221.167 347,223.5C 347.667,224.833 348.667,225.833 350,226.5C 349.868,231.503 350.868,236.17 353,240.5C 353.5,249.16 353.666,257.827 353.5,266.5C 353.167,266.5 352.833,266.5 352.5,266.5C 352.666,258.493 352.5,250.493 352,242.5C 351.768,241.263 351.268,240.263 350.5,239.5C 348.837,237.562 348.171,235.228 348.5,232.5C 347.5,232.5 346.5,232.5 345.5,232.5C 345.5,231.833 345.5,231.167 345.5,230.5C 346.564,225.49 345.564,220.823 342.5,216.5C 341.379,214.259 340.213,211.925 339,209.5C 337.989,208.663 336.822,208.33 335.5,208.5C 335.5,207.833 335.5,207.167 335.5,206.5C 333.412,202.722 331.746,198.722 330.5,194.5C 326.144,191.39 322.478,187.724 319.5,183.5 Z"/></g>
<g><path style="opacity:0.135" fill="#f0adb2" d="M 8.5,208.5 C 9.46138,210.265 9.79472,212.265 9.5,214.5C 8.5,214.5 7.5,214.5 6.5,214.5C 6.05351,211.99 6.72017,209.99 8.5,208.5 Z"/></g>
<g><path style="opacity:1" fill="#e44565" d="M 13.5,200.5 C 12.9844,205.229 12.9844,209.896 13.5,214.5C 14.941,213.135 16.2744,211.635 17.5,210C 18.448,209.517 19.448,209.351 20.5,209.5C 20.5,207.833 20.5,206.167 20.5,204.5C 22.1667,204.5 23.8333,204.5 25.5,204.5C 23.2821,207.113 21.6154,210.113 20.5,213.5C 18.9826,213.511 17.8159,214.177 17,215.5C 15.3904,217.992 14.2237,220.659 13.5,223.5C 12.5,223.5 11.5,223.5 10.5,223.5C 10.313,217.788 10.6463,212.121 11.5,206.5C 11.5,204.833 11.5,203.167 11.5,201.5C 12.1667,201.167 12.8333,200.833 13.5,200.5 Z"/></g>
<g><path style="opacity:0.106" fill="#f6b9a3" d="M 335.5,208.5 C 336.822,208.33 337.989,208.663 339,209.5C 340.213,211.925 341.379,214.259 342.5,216.5C 342.5,218.167 342.5,219.833 342.5,221.5C 339.607,217.508 337.274,213.175 335.5,208.5 Z"/></g>
<g><path style="opacity:0.227" fill="#fac2cc" d="M 6.5,216.5 C 7.15818,217.793 7.49152,219.293 7.5,221C 7.43135,222.986 6.76468,224.486 5.5,225.5C 5.36772,222.43 5.70105,219.43 6.5,216.5 Z"/></g>
<g><path style="opacity:0.084" fill="#f8c9bd" d="M 342.5,221.5 C 343.586,221.62 344.253,222.287 344.5,223.5C 344.457,224.416 344.124,225.083 343.5,225.5C 342.566,224.432 342.232,223.099 342.5,221.5 Z"/></g>
<g><path style="opacity:1" fill="#d54e67" d="M 8.5,206.5 C 9.5,206.5 10.5,206.5 11.5,206.5C 10.6463,212.121 10.313,217.788 10.5,223.5C 11.5,223.5 12.5,223.5 13.5,223.5C 13.7725,225.958 12.7725,227.625 10.5,228.5C 9.83262,231.642 9.16596,234.642 8.5,237.5C 7.86137,236.903 7.52804,236.07 7.5,235C 8.4372,228.191 9.10386,221.357 9.5,214.5C 9.79472,212.265 9.46138,210.265 8.5,208.5C 8.5,207.833 8.5,207.167 8.5,206.5 Z"/></g>
<g><path style="opacity:0.094" fill="#f2a287" d="M 342.5,216.5 C 345.564,220.823 346.564,225.49 345.5,230.5C 343.744,229.448 343.077,227.781 343.5,225.5C 344.124,225.083 344.457,224.416 344.5,223.5C 344.253,222.287 343.586,221.62 342.5,221.5C 342.5,219.833 342.5,218.167 342.5,216.5 Z"/></g>
<g><path style="opacity:0.388" fill="#ef97a5" d="M 173.5,209.5 C 171.851,213.89 170.018,218.224 168,222.5C 166.678,228.3 165.178,233.967 163.5,239.5C 162.391,239.557 161.391,239.89 160.5,240.5C 162.227,235.049 163.227,229.383 163.5,223.5C 164.5,223.5 165.5,223.5 166.5,223.5C 166.387,217.449 168.72,212.783 173.5,209.5 Z"/></g>
<g><path style="opacity:0.055" fill="#eba185" d="M 501.5,216.5 C 502.167,216.5 502.833,216.5 503.5,216.5C 504.466,222.112 505.132,227.779 505.5,233.5C 505.802,236.059 505.468,238.393 504.5,240.5C 502.637,232.646 501.637,224.646 501.5,216.5 Z"/></g>
<g><path style="opacity:1" fill="#d46d7f" d="M 6.5,214.5 C 7.5,214.5 8.5,214.5 9.5,214.5C 9.10386,221.357 8.4372,228.191 7.5,235C 7.52804,236.07 7.86137,236.903 8.5,237.5C 8.5,239.167 8.5,240.833 8.5,242.5C 7.83333,242.5 7.16667,242.5 6.5,242.5C 6.16667,238.5 5.83333,234.5 5.5,230.5C 5.5,228.833 5.5,227.167 5.5,225.5C 6.76468,224.486 7.43135,222.986 7.5,221C 7.49152,219.293 7.15818,217.793 6.5,216.5C 6.5,215.833 6.5,215.167 6.5,214.5 Z"/></g>
<g><path style="opacity:0.026" fill="#ffe0d9" d="M 345.5,234.5 C 347.256,235.552 347.923,237.219 347.5,239.5C 345.787,238.365 345.12,236.698 345.5,234.5 Z"/></g>
<g><path style="opacity:0.208" fill="#f3a38f" d="M 345.5,232.5 C 346.5,232.5 347.5,232.5 348.5,232.5C 348.171,235.228 348.837,237.562 350.5,239.5C 350.806,242.385 350.473,245.052 349.5,247.5C 349.923,245.219 349.256,243.552 347.5,242.5C 347.5,241.5 347.5,240.5 347.5,239.5C 347.923,237.219 347.256,235.552 345.5,234.5C 345.5,233.833 345.5,233.167 345.5,232.5 Z"/></g>
<g><path style="opacity:1" fill="#dc6d7d" d="M 163.5,223.5 C 163.227,229.383 162.227,235.049 160.5,240.5C 160.672,241.492 160.338,242.158 159.5,242.5C 159.167,242.5 158.833,242.5 158.5,242.5C 157.275,241.848 156.608,240.681 156.5,239C 155.969,236.183 155.636,233.35 155.5,230.5C 156.167,230.5 156.833,230.5 157.5,230.5C 157.5,232.167 157.5,233.833 157.5,235.5C 158.833,235.5 160.167,235.5 161.5,235.5C 161.083,231.183 161.75,227.183 163.5,223.5 Z"/></g>
<g><path style="opacity:0.241" fill="#eebdc1" d="M 163.5,239.5 C 163.817,244.672 163.151,249.672 161.5,254.5C 159.577,250.971 158.911,246.971 159.5,242.5C 160.338,242.158 160.672,241.492 160.5,240.5C 161.391,239.89 162.391,239.557 163.5,239.5 Z"/></g>
<g><path style="opacity:0.214" fill="#e0876b" d="M 350.5,239.5 C 351.268,240.263 351.768,241.263 352,242.5C 352.5,250.493 352.666,258.493 352.5,266.5C 352.167,266.5 351.833,266.5 351.5,266.5C 351.672,265.508 351.338,264.842 350.5,264.5C 350.802,261.941 350.468,259.607 349.5,257.5C 349.5,254.167 349.5,250.833 349.5,247.5C 350.473,245.052 350.806,242.385 350.5,239.5 Z"/></g>
<g><path style="opacity:0.408" fill="#e5bbbf" d="M 5.5,230.5 C 5.83333,234.5 6.16667,238.5 6.5,242.5C 6.69919,254.523 6.36586,266.523 5.5,278.5C 4.16667,262.5 4.16667,246.5 5.5,230.5 Z"/></g>
<g><path style="opacity:0.005" fill="#ffeee3" d="M 347.5,242.5 C 349.256,243.552 349.923,245.219 349.5,247.5C 349.5,250.833 349.5,254.167 349.5,257.5C 349.167,257.5 348.833,257.5 348.5,257.5C 348.387,252.482 348.053,247.482 347.5,242.5 Z"/></g>
<g><path style="opacity:0.19" fill="#fbcdc0" d="M 505.5,233.5 C 506.833,248.5 506.833,263.5 505.5,278.5C 505.167,275.167 504.833,271.833 504.5,268.5C 504.5,259.167 504.5,249.833 504.5,240.5C 505.468,238.393 505.802,236.059 505.5,233.5 Z"/></g>
<g><path style="opacity:0.961" fill="#e97a56" d="M 499.5,211.5 C 500.167,211.5 500.833,211.5 501.5,211.5C 501.5,213.167 501.5,214.833 501.5,216.5C 501.637,224.646 502.637,232.646 504.5,240.5C 504.5,249.833 504.5,259.167 504.5,268.5C 503.532,270.607 503.198,272.941 503.5,275.5C 503.167,275.5 502.833,275.5 502.5,275.5C 502.5,272.833 502.5,270.167 502.5,267.5C 502.667,256.495 502.5,245.495 502,234.5C 500.121,226.949 499.287,219.282 499.5,211.5 Z"/></g>
<g><path style="opacity:0.222" fill="#f9c6b9" d="M 348.5,257.5 C 348.833,257.5 349.167,257.5 349.5,257.5C 350.468,259.607 350.802,261.941 350.5,264.5C 349.5,264.5 348.5,264.5 347.5,264.5C 347.198,261.941 347.532,259.607 348.5,257.5 Z"/></g>
<g><path style="opacity:0.842" fill="#ac6874" d="M 158.5,242.5 C 158.833,242.5 159.167,242.5 159.5,242.5C 158.911,246.971 159.577,250.971 161.5,254.5C 161.5,257.833 161.5,261.167 161.5,264.5C 160.945,268.012 161.612,271.012 163.5,273.5C 163.5,274.833 163.5,276.167 163.5,277.5C 163.74,281.606 164.407,285.606 165.5,289.5C 164.833,289.5 164.167,289.5 163.5,289.5C 163.5,288.167 163.5,286.833 163.5,285.5C 162.5,285.5 161.5,285.5 160.5,285.5C 158.859,271.223 158.192,256.89 158.5,242.5 Z"/></g>
<g><path style="opacity:0.045" fill="#fed4e2" d="M 161.5,264.5 C 162.117,264.611 162.617,264.944 163,265.5C 163.497,268.146 163.664,270.813 163.5,273.5C 161.612,271.012 160.945,268.012 161.5,264.5 Z"/></g>
<g><path style="opacity:0.013" fill="#fff0cc" d="M 347.5,267.5 C 348.055,271.012 347.388,274.012 345.5,276.5C 345.336,273.813 345.503,271.146 346,268.5C 346.383,267.944 346.883,267.611 347.5,267.5 Z"/></g>
<g><path style="opacity:0.999" fill="#963e50" d="M 6.5,242.5 C 7.16667,242.5 7.83333,242.5 8.5,242.5C 8.07652,253.926 8.74318,265.26 10.5,276.5C 10.2907,277.086 9.95735,277.586 9.5,278C 10.6721,278.419 11.6721,279.085 12.5,280C 11.5183,287.747 11.185,295.58 11.5,303.5C 10.1667,303.5 9.5,302.833 9.5,301.5C 9.5,300.5 9.5,299.5 9.5,298.5C 9.74061,296.102 9.07394,294.102 7.5,292.5C 8.08943,288.029 7.42277,284.029 5.5,280.5C 5.5,279.833 5.5,279.167 5.5,278.5C 6.36586,266.523 6.69919,254.523 6.5,242.5 Z"/></g>
<g><path style="opacity:1" fill="#f27d42" d="M 351.5,266.5 C 351.833,266.5 352.167,266.5 352.5,266.5C 352.833,266.5 353.167,266.5 353.5,266.5C 353.804,269.522 354.304,272.522 355,275.5C 355.667,277.5 357,278.833 359,279.5C 359.745,284.936 361.912,289.603 365.5,293.5C 364.377,295.482 364.377,297.482 365.5,299.5C 362.923,297.284 360.59,294.951 358.5,292.5C 356.734,284.874 354.401,277.54 351.5,270.5C 351.167,270.5 350.833,270.5 350.5,270.5C 350.833,269.167 351.167,267.833 351.5,266.5 Z"/></g>
<g><path style="opacity:0.067" fill="#f3c783" d="M 347.5,264.5 C 348.5,264.5 349.5,264.5 350.5,264.5C 351.338,264.842 351.672,265.508 351.5,266.5C 351.167,267.833 350.833,269.167 350.5,270.5C 348.609,277.178 345.942,283.512 342.5,289.5C 342.905,284.999 343.905,280.666 345.5,276.5C 347.388,274.012 348.055,271.012 347.5,267.5C 347.5,266.5 347.5,265.5 347.5,264.5 Z"/></g>
<g><path style="opacity:1" fill="#f58e3f" d="M 502.5,275.5 C 501.949,278.807 501.616,282.14 501.5,285.5C 501.167,285.5 500.833,285.5 500.5,285.5C 500.167,285.5 499.833,285.5 499.5,285.5C 499.32,281.714 500.32,278.381 502.5,275.5 Z"/></g>
<g><path style="opacity:0.285" fill="#f2ba77" d="M 504.5,268.5 C 504.833,271.833 505.167,275.167 505.5,278.5C 505.665,281.518 505.498,284.518 505,287.5C 504.617,288.056 504.117,288.389 503.5,288.5C 503.5,284.167 503.5,279.833 503.5,275.5C 503.198,272.941 503.532,270.607 504.5,268.5 Z"/></g>
<g><path style="opacity:0.114" fill="#deb3b8" d="M 163.5,277.5 C 164.117,277.611 164.617,277.944 165,278.5C 166.078,282.563 167.245,286.563 168.5,290.5C 167.833,290.5 167.167,290.5 166.5,290.5C 166.5,289.833 166.167,289.5 165.5,289.5C 164.407,285.606 163.74,281.606 163.5,277.5 Z"/></g>
<g><path style="opacity:0.522" fill="#f1b952" d="M 350.5,270.5 C 350.833,270.5 351.167,270.5 351.5,270.5C 350.299,274.399 349.299,278.399 348.5,282.5C 346.443,288.356 344.109,294.022 341.5,299.5C 339.466,300.591 338.132,302.257 337.5,304.5C 337.5,303.167 337.5,301.833 337.5,300.5C 338.11,299.609 338.443,298.609 338.5,297.5C 339.5,297.5 340.5,297.5 341.5,297.5C 341.993,295.194 342.326,292.861 342.5,290.5C 342.5,290.167 342.5,289.833 342.5,289.5C 345.942,283.512 348.609,277.178 350.5,270.5 Z"/></g>
<g><path style="opacity:1" fill="#f56e3a" d="M 502.5,267.5 C 502.5,270.167 502.5,272.833 502.5,275.5C 500.32,278.381 499.32,281.714 499.5,285.5C 496.115,289.604 493.781,294.271 492.5,299.5C 489.943,302.403 487.276,305.403 484.5,308.5C 483.614,309.325 483.281,310.325 483.5,311.5C 482.5,311.5 481.5,311.5 480.5,311.5C 479.833,311.5 479.167,311.5 478.5,311.5C 478.5,307.5 478.5,303.5 478.5,299.5C 476.833,299.5 475.167,299.5 473.5,299.5C 473.329,296.203 473.995,295.869 475.5,298.5C 476.833,297.833 478.167,297.167 479.5,296.5C 480.314,298.766 480.814,301.1 481,303.5C 482.044,302.377 482.71,301.044 483,299.5C 483.249,300.624 483.749,301.624 484.5,302.5C 484.833,301.833 485.167,301.167 485.5,300.5C 482.433,296.338 482.933,292.671 487,289.5C 487.333,287.5 487.667,285.5 488,283.5C 489.333,282.833 490.667,282.167 492,281.5C 492.833,283.5 493.667,285.5 494.5,287.5C 495.228,285.807 496.228,284.307 497.5,283C 496.088,281.587 495.088,279.92 494.5,278C 495.63,275.593 496.463,273.093 497,270.5C 499,269.833 500.333,268.5 501,266.5C 501.383,267.056 501.883,267.389 502.5,267.5 Z"/></g>
<g><path style="opacity:0.953" fill="#eaab52" d="M 502.5,275.5 C 502.833,275.5 503.167,275.5 503.5,275.5C 503.5,279.833 503.5,284.167 503.5,288.5C 503.5,289.5 503.5,290.5 503.5,291.5C 502.833,291.5 502.167,291.5 501.5,291.5C 501.5,289.5 501.5,287.5 501.5,285.5C 501.616,282.14 501.949,278.807 502.5,275.5 Z"/></g>
<g><path style="opacity:0.22" fill="#f9d390" d="M 342.5,290.5 C 342.326,292.861 341.993,295.194 341.5,297.5C 340.5,297.5 339.5,297.5 338.5,297.5C 338.351,296.448 338.517,295.448 339,294.5C 339.74,292.681 340.907,291.348 342.5,290.5 Z"/></g>
<g><path style="opacity:0.047" fill="#ecbbc3" d="M 5.5,280.5 C 7.42277,284.029 8.08943,288.029 7.5,292.5C 7.67158,293.492 7.33825,294.158 6.5,294.5C 5.51388,290.03 5.18054,285.363 5.5,280.5 Z"/></g>
<g><path style="opacity:1" fill="#f9af01" d="M 358.5,293.5 C 361.343,300.013 365.677,305.347 371.5,309.5C 372.752,311.001 373.752,312.668 374.5,314.5C 379.476,317.813 384.142,321.48 388.5,325.5C 390.248,326.789 390.581,328.289 389.5,330C 392.833,330.333 396.167,330.667 399.5,331C 400.67,332.755 402.337,333.755 404.5,334C 419.51,335.96 434.51,335.96 449.5,334C 455.329,330.67 461.329,327.67 467.5,325C 471.206,321.151 475.539,318.318 480.5,316.5C 480.5,315.5 480.5,314.5 480.5,313.5C 480.5,312.833 480.5,312.167 480.5,311.5C 481.5,311.5 482.5,311.5 483.5,311.5C 483.281,310.325 483.614,309.325 484.5,308.5C 487.276,305.403 489.943,302.403 492.5,299.5C 496.23,298.032 498.563,295.365 499.5,291.5C 499.439,295.846 498.273,299.846 496,303.5C 496.089,311.791 494.922,319.791 492.5,327.5C 491.685,328.429 490.852,329.429 490,330.5C 488.844,329.007 488.01,329.174 487.5,331C 488.8,336.711 486.967,338.211 482,335.5C 481.303,340.332 479.47,341.166 476.5,338C 474.866,337.506 473.199,337.34 471.5,337.5C 471.865,342.423 473.532,346.923 476.5,351C 474.964,353.68 473.964,357.513 473.5,362.5C 475.272,363.27 476.272,364.603 476.5,366.5C 474.048,372.577 470.715,378.077 466.5,383C 465.552,383.483 464.552,383.649 463.5,383.5C 463.105,388.512 461.771,393.179 459.5,397.5C 458.828,400.644 457.828,403.644 456.5,406.5C 454.012,406.683 452.012,407.683 450.5,409.5C 447.654,409.809 446.154,411.475 446,414.5C 443.121,415.909 441.455,418.243 441,421.5C 437.948,424.051 435.448,427.051 433.5,430.5C 429.263,434.396 424.929,438.396 420.5,442.5C 416.537,445.129 412.871,448.129 409.5,451.5C 400.6,455.455 392.934,461.121 386.5,468.5C 380.212,469.481 375.212,472.481 371.5,477.5C 368.895,477.621 366.895,478.621 365.5,480.5C 362.385,480.394 359.719,481.394 357.5,483.5C 353.534,482.838 349.534,482.505 345.5,482.5C 345.5,483.833 345.5,485.167 345.5,486.5C 340.102,485.367 336.102,487.2 333.5,492C 329.251,493.126 324.918,493.792 320.5,494C 319.5,495 318.5,496 317.5,497C 314.167,497.333 310.833,497.667 307.5,498C 305.944,498.72 304.944,499.887 304.5,501.5C 299.821,501.334 295.155,501.501 290.5,502C 287.896,502.39 285.562,503.224 283.5,504.5C 282.833,504.5 282.167,504.5 281.5,504.5C 267.167,504.5 252.833,504.5 238.5,504.5C 237.167,504.5 235.833,504.5 234.5,504.5C 231.381,503.13 228.048,502.13 224.5,501.5C 223.335,498.41 221.002,497.076 217.5,497.5C 217.631,496.624 217.298,495.957 216.5,495.5C 214.374,494.63 212.374,493.63 210.5,492.5C 210.5,491.833 210.5,491.167 210.5,490.5C 209.294,488.517 207.961,486.517 206.5,484.5C 206.709,483.914 207.043,483.414 207.5,483C 201.617,484.113 199.617,481.78 201.5,476C 199.112,475.697 196.945,474.863 195,473.5C 194.801,471.598 193.967,470.098 192.5,469C 193.793,465.079 192.459,462.246 188.5,460.5C 180.075,442.679 179.242,424.679 186,406.5C 186.833,405.667 187.667,404.833 188.5,404C 188.347,402.439 188.014,400.605 187.5,398.5C 189.279,395.87 190.279,392.87 190.5,389.5C 191.978,389.762 193.311,389.429 194.5,388.5C 196.321,385.004 198.321,381.671 200.5,378.5C 202.512,374.323 205.678,371.323 210,369.5C 210.483,368.552 210.649,367.552 210.5,366.5C 214.655,365.258 218.322,363.258 221.5,360.5C 225.262,357.827 229.595,356.327 234.5,356C 235.756,355.583 236.423,354.75 236.5,353.5C 237.5,353.5 238.5,353.5 239.5,353.5C 245.833,353.5 252.167,353.5 258.5,353.5C 267.547,352.97 276.547,351.97 285.5,350.5C 287.219,348.648 289.219,347.314 291.5,346.5C 298.373,343.858 305.373,341.358 312.5,339C 314.189,333.975 317.356,330.141 322,327.5C 322.464,326.906 322.631,326.239 322.5,325.5C 324.39,325.703 325.89,325.037 327,323.5C 329.184,318.312 332.518,313.978 337,310.5C 338.18,308.14 339.347,305.807 340.5,303.5C 341.75,303.423 342.583,302.756 343,301.5C 345.074,297.355 346.574,293.021 347.5,288.5C 349.006,287.253 350.506,287.253 352,288.5C 351.737,287.049 351.904,285.716 352.5,284.5C 354.146,287.847 356.146,290.847 358.5,293.5 Z"/></g>
<g><path style="opacity:1" fill="#fda01e" d="M 499.5,285.5 C 499.833,285.5 500.167,285.5 500.5,285.5C 500.483,287.565 500.15,289.565 499.5,291.5C 498.563,295.365 496.23,298.032 492.5,299.5C 493.781,294.271 496.115,289.604 499.5,285.5 Z"/></g>
<g><path style="opacity:0.149" fill="#f2d791" d="M 501.5,291.5 C 502.167,291.5 502.833,291.5 503.5,291.5C 503.817,295.702 503.483,299.702 502.5,303.5C 501.517,299.702 501.183,295.702 501.5,291.5 Z"/></g>
<g><path style="opacity:0.139" fill="#b5898e" d="M 7.5,292.5 C 9.07394,294.102 9.74061,296.102 9.5,298.5C 8.5,298.5 7.5,298.5 6.5,298.5C 6.5,297.167 6.5,295.833 6.5,294.5C 7.33825,294.158 7.67158,293.492 7.5,292.5 Z"/></g>
<g><path style="opacity:1" fill="#f5ad21" d="M 351.5,270.5 C 354.401,277.54 356.734,284.874 358.5,292.5C 358.5,292.833 358.5,293.167 358.5,293.5C 356.146,290.847 354.146,287.847 352.5,284.5C 351.904,285.716 351.737,287.049 352,288.5C 350.506,287.253 349.006,287.253 347.5,288.5C 346.574,293.021 345.074,297.355 343,301.5C 342.583,302.756 341.75,303.423 340.5,303.5C 340.833,302.167 341.167,300.833 341.5,299.5C 344.109,294.022 346.443,288.356 348.5,282.5C 349.299,278.399 350.299,274.399 351.5,270.5 Z"/></g>
<g><path style="opacity:0.024" fill="#f4d1d1" d="M 6.5,298.5 C 7.5,298.5 8.5,298.5 9.5,298.5C 9.5,299.5 9.5,300.5 9.5,301.5C 8.83333,301.5 8.5,301.833 8.5,302.5C 6.89578,301.713 6.22911,300.38 6.5,298.5 Z"/></g>
<g><path style="opacity:1" fill="#efb330" d="M 500.5,285.5 C 500.833,285.5 501.167,285.5 501.5,285.5C 501.5,287.5 501.5,289.5 501.5,291.5C 501.183,295.702 501.517,299.702 502.5,303.5C 502.5,304.167 502.5,304.833 502.5,305.5C 501.5,305.5 500.5,305.5 499.5,305.5C 498.999,310.508 498.332,315.508 497.5,320.5C 495.619,324.623 493.952,328.623 492.5,332.5C 492.5,330.833 492.5,329.167 492.5,327.5C 494.922,319.791 496.089,311.791 496,303.5C 498.273,299.846 499.439,295.846 499.5,291.5C 500.15,289.565 500.483,287.565 500.5,285.5 Z"/></g>
<g><path style="opacity:0.127" fill="#ffe7a9" d="M 337.5,300.5 C 337.5,301.833 337.5,303.167 337.5,304.5C 336.833,304.5 336.167,304.5 335.5,304.5C 335.157,302.517 335.824,301.183 337.5,300.5 Z"/></g>
<g><path style="opacity:0.082" fill="#e6b0be" d="M 9.5,301.5 C 9.5,302.833 10.1667,303.5 11.5,303.5C 11.5,305.833 11.5,308.167 11.5,310.5C 11.7373,311.791 11.404,312.791 10.5,313.5C 8.78303,310.155 8.11636,306.489 8.5,302.5C 8.5,301.833 8.83333,301.5 9.5,301.5 Z"/></g>
<g><path style="opacity:1" fill="#993f53" d="M 163.5,289.5 C 164.167,289.5 164.833,289.5 165.5,289.5C 166.167,289.5 166.5,289.833 166.5,290.5C 167.693,299.453 171.693,306.787 178.5,312.5C 179.37,314.626 180.37,316.626 181.5,318.5C 180.5,318.5 179.5,318.5 178.5,318.5C 178.5,317.5 178.5,316.5 178.5,315.5C 174.269,317.303 171.436,315.969 170,311.5C 170.038,305.878 168.038,300.878 164,296.5C 163.503,294.19 163.337,291.857 163.5,289.5 Z"/></g>
<g><path style="opacity:0.463" fill="#ecc86e" d="M 335.5,304.5 C 335.655,309.774 333.322,313.107 328.5,314.5C 330.111,310.679 332.445,307.345 335.5,304.5 Z"/></g>
<g><path style="opacity:0.616" fill="#af707e" d="M 11.5,310.5 C 12.1174,310.611 12.6174,310.944 13,311.5C 13.3629,314.544 13.8629,317.544 14.5,320.5C 13.1667,318.833 11.8333,317.167 10.5,315.5C 10.5,314.833 10.5,314.167 10.5,313.5C 11.404,312.791 11.7373,311.791 11.5,310.5 Z"/></g>
<g><path style="opacity:0.89" fill="#e9b538" d="M 341.5,299.5 C 341.167,300.833 340.833,302.167 340.5,303.5C 339.347,305.807 338.18,308.14 337,310.5C 332.518,313.978 329.184,318.312 327,323.5C 325.89,325.037 324.39,325.703 322.5,325.5C 323.428,323.401 324.928,321.734 327,320.5C 327.505,318.482 328.005,316.482 328.5,314.5C 333.322,313.107 335.655,309.774 335.5,304.5C 336.167,304.5 336.833,304.5 337.5,304.5C 338.132,302.257 339.466,300.591 341.5,299.5 Z"/></g>
<g><path style="opacity:0.116" fill="#d49eaa" d="M 166.5,290.5 C 167.167,290.5 167.833,290.5 168.5,290.5C 176.479,308.831 188.479,323.831 204.5,335.5C 203.127,335.657 201.793,335.49 200.5,335C 193.316,330.643 187.316,325.143 182.5,318.5C 182.167,318.5 181.833,318.5 181.5,318.5C 180.37,316.626 179.37,314.626 178.5,312.5C 171.693,306.787 167.693,299.453 166.5,290.5 Z"/></g>
<g><path style="opacity:1" fill="#fb9d34" d="M 358.5,292.5 C 360.59,294.951 362.923,297.284 365.5,299.5C 366.204,303.537 368.537,305.87 372.5,306.5C 372.585,308.929 373.585,310.929 375.5,312.5C 378.462,314.132 381.129,316.132 383.5,318.5C 386.111,321.364 389.111,323.697 392.5,325.5C 391.167,325.5 389.833,325.5 388.5,325.5C 384.142,321.48 379.476,317.813 374.5,314.5C 373.752,312.668 372.752,311.001 371.5,309.5C 365.677,305.347 361.343,300.013 358.5,293.5C 358.5,293.167 358.5,292.833 358.5,292.5 Z"/></g>
<g><path style="opacity:0.043" fill="#f3d081" d="M 502.5,305.5 C 499.754,322.029 494.92,338.029 488,353.5C 487.623,354.942 486.79,355.942 485.5,356.5C 484.494,355.021 484.494,353.354 485.5,351.5C 489.105,345.604 491.439,339.271 492.5,332.5C 493.952,328.623 495.619,324.623 497.5,320.5C 498.332,315.508 498.999,310.508 499.5,305.5C 500.5,305.5 501.5,305.5 502.5,305.5 Z"/></g>
<g><path style="opacity:1" fill="#f07f36" d="M 383.5,318.5 C 386.245,319.616 389.078,320.616 392,321.5C 393.749,322.41 394.916,323.743 395.5,325.5C 394.5,325.5 393.5,325.5 392.5,325.5C 389.111,323.697 386.111,321.364 383.5,318.5 Z"/></g>
<g><path style="opacity:0.467" fill="#f6d17c" d="M 328.5,314.5 C 328.005,316.482 327.505,318.482 327,320.5C 324.928,321.734 323.428,323.401 322.5,325.5C 318.221,327.151 314.887,329.984 312.5,334C 307.854,336.6 303.188,339.1 298.5,341.5C 296.955,342.452 295.288,342.785 293.5,342.5C 302.664,337.355 311.331,331.355 319.5,324.5C 322.203,320.802 325.203,317.469 328.5,314.5 Z"/></g>
<g><path style="opacity:1" fill="#f37b2d" d="M 478.5,311.5 C 479.167,311.5 479.833,311.5 480.5,311.5C 480.5,312.167 480.5,312.833 480.5,313.5C 455.801,333.606 428.301,338.272 398,327.5C 396.97,327.164 396.47,326.497 396.5,325.5C 401.784,327.428 407.117,329.261 412.5,331C 422.494,331.5 432.494,331.666 442.5,331.5C 442.5,330.167 442.5,328.833 442.5,327.5C 452.849,327.188 462.349,324.188 471,318.5C 471.273,316.899 471.773,315.399 472.5,314C 474.628,313.345 476.628,312.511 478.5,311.5 Z"/></g>
<g><path style="opacity:0.995" fill="#9a3e52" d="M 11.5,303.5 C 13.1172,304.038 14.7839,304.371 16.5,304.5C 14.261,312.172 15.4277,319.172 20,325.5C 20.3076,324.692 20.8076,324.025 21.5,323.5C 22.2436,324.991 22.9103,326.491 23.5,328C 23.2549,330.089 23.2549,332.089 23.5,334C 22.1059,334.956 21.4393,336.289 21.5,338C 23.1811,339.989 24.5144,342.156 25.5,344.5C 24.325,344.719 23.325,344.386 22.5,343.5C 21.3869,340.559 20.0536,337.892 18.5,335.5C 16.8169,330.608 15.4835,325.608 14.5,320.5C 13.8629,317.544 13.3629,314.544 13,311.5C 12.6174,310.944 12.1174,310.611 11.5,310.5C 11.5,308.167 11.5,305.833 11.5,303.5 Z"/></g>
<g><path style="opacity:1" fill="#fba516" d="M 480.5,313.5 C 480.5,314.5 480.5,315.5 480.5,316.5C 475.539,318.318 471.206,321.151 467.5,325C 461.329,327.67 455.329,330.67 449.5,334C 434.51,335.96 419.51,335.96 404.5,334C 402.337,333.755 400.67,332.755 399.5,331C 396.167,330.667 392.833,330.333 389.5,330C 390.581,328.289 390.248,326.789 388.5,325.5C 389.833,325.5 391.167,325.5 392.5,325.5C 393.5,325.5 394.5,325.5 395.5,325.5C 395.833,325.5 396.167,325.5 396.5,325.5C 396.47,326.497 396.97,327.164 398,327.5C 428.301,338.272 455.801,333.606 480.5,313.5 Z"/></g>
<g><path style="opacity:1" fill="#f4b014" d="M 492.5,327.5 C 492.5,329.167 492.5,330.833 492.5,332.5C 491.439,339.271 489.105,345.604 485.5,351.5C 484.494,353.354 484.494,355.021 485.5,356.5C 485.5,357.167 485.5,357.833 485.5,358.5C 483.857,358.48 482.524,359.147 481.5,360.5C 480.276,363.727 478.943,366.894 477.5,370C 477.57,370.765 477.903,371.265 478.5,371.5C 478.5,372.167 478.5,372.833 478.5,373.5C 477.07,373.421 475.736,373.754 474.5,374.5C 470.732,379.701 467.732,385.367 465.5,391.5C 463.478,393.609 461.478,395.609 459.5,397.5C 461.771,393.179 463.105,388.512 463.5,383.5C 464.552,383.649 465.552,383.483 466.5,383C 470.715,378.077 474.048,372.577 476.5,366.5C 476.272,364.603 475.272,363.27 473.5,362.5C 473.964,357.513 474.964,353.68 476.5,351C 473.532,346.923 471.865,342.423 471.5,337.5C 473.199,337.34 474.866,337.506 476.5,338C 479.47,341.166 481.303,340.332 482,335.5C 486.967,338.211 488.8,336.711 487.5,331C 488.01,329.174 488.844,329.007 490,330.5C 490.852,329.429 491.685,328.429 492.5,327.5 Z"/></g>
<g><path style="opacity:1" fill="#9a4253" d="M 182.5,318.5 C 187.316,325.143 193.316,330.643 200.5,335C 201.793,335.49 203.127,335.657 204.5,335.5C 206.879,341.169 211.212,343.503 217.5,342.5C 218.183,344.176 219.517,344.843 221.5,344.5C 223.933,348.201 227.267,349.201 231.5,347.5C 231.5,348.167 231.5,348.833 231.5,349.5C 233.961,350.531 236.627,351.198 239.5,351.5C 239.5,351.833 239.5,352.167 239.5,352.5C 239.5,352.833 239.5,353.167 239.5,353.5C 238.5,353.5 237.5,353.5 236.5,353.5C 235.833,353.5 235.167,353.5 234.5,353.5C 233.77,351.955 232.437,351.122 230.5,351C 227.8,350.747 225.133,350.747 222.5,351C 223.336,349.757 223.003,348.59 221.5,347.5C 213.589,345.701 206.256,342.701 199.5,338.5C 197.827,340.086 195.827,340.753 193.5,340.5C 193.137,338.089 194.137,336.589 196.5,336C 192.644,332.643 188.644,329.476 184.5,326.5C 182.771,324.149 182.104,321.482 182.5,318.5 Z"/></g>
<g><path style="opacity:1" fill="#edb32d" d="M 322.5,325.5 C 322.631,326.239 322.464,326.906 322,327.5C 317.356,330.141 314.189,333.975 312.5,339C 305.373,341.358 298.373,343.858 291.5,346.5C 292.167,345.167 292.833,343.833 293.5,342.5C 295.288,342.785 296.955,342.452 298.5,341.5C 303.188,339.1 307.854,336.6 312.5,334C 314.887,329.984 318.221,327.151 322.5,325.5 Z"/></g>
<g><path style="opacity:0.475" fill="#d59faa" d="M 204.5,335.5 C 209.314,337.072 213.648,339.405 217.5,342.5C 211.212,343.503 206.879,341.169 204.5,335.5 Z"/></g>
<g><path style="opacity:0.02" fill="#f6d4dc" d="M 217.5,342.5 C 219.483,342.157 220.817,342.824 221.5,344.5C 219.517,344.843 218.183,344.176 217.5,342.5 Z"/></g>
<g><path style="opacity:0.678" fill="#f6d18d" d="M 293.5,342.5 C 292.833,343.833 292.167,345.167 291.5,346.5C 285.229,347.874 278.895,348.874 272.5,349.5C 279.113,346.629 286.113,344.295 293.5,342.5 Z"/></g>
<g><path style="opacity:0.447" fill="#c78d92" d="M 221.5,344.5 C 225.345,344.288 228.679,345.288 231.5,347.5C 227.267,349.201 223.933,348.201 221.5,344.5 Z"/></g>
<g><path style="opacity:0.061" fill="#f7dddd" d="M 231.5,347.5 C 235.649,346.92 239.316,347.586 242.5,349.5C 238.833,349.5 235.167,349.5 231.5,349.5C 231.5,348.833 231.5,348.167 231.5,347.5 Z"/></g>
<g><path style="opacity:0.906" fill="#ad6f7a" d="M 231.5,349.5 C 235.167,349.5 238.833,349.5 242.5,349.5C 243.5,349.5 244.5,349.5 245.5,349.5C 244.082,351.308 242.082,351.975 239.5,351.5C 236.627,351.198 233.961,350.531 231.5,349.5 Z"/></g>
<g><path style="opacity:0.361" fill="#fcdf8a" d="M 253.5,350.5 C 258.64,349.512 263.974,349.179 269.5,349.5C 267.721,351.344 265.388,352.01 262.5,351.5C 259.713,350.523 256.713,350.19 253.5,350.5 Z"/></g>
<g><path style="opacity:1" fill="#9e5162" d="M 18.5,335.5 C 20.0536,337.892 21.3869,340.559 22.5,343.5C 23.325,344.386 24.325,344.719 25.5,344.5C 26.8155,348.984 27.6489,353.651 28,358.5C 29.4813,359.471 30.3146,360.804 30.5,362.5C 29.4168,362.461 28.4168,362.127 27.5,361.5C 24.8383,352.683 21.8383,344.016 18.5,335.5 Z"/></g>
<g><path style="opacity:0.514" fill="#f3c7aa" d="M 245.5,349.5 C 247.415,349.216 249.081,349.549 250.5,350.5C 250.082,351.222 249.416,351.722 248.5,352C 245.518,352.498 242.518,352.665 239.5,352.5C 239.5,352.167 239.5,351.833 239.5,351.5C 242.082,351.975 244.082,351.308 245.5,349.5 Z"/></g>
<g><path style="opacity:0.967" fill="#eab35d" d="M 250.5,350.5 C 251.5,350.5 252.5,350.5 253.5,350.5C 256.713,350.19 259.713,350.523 262.5,351.5C 260.847,351.66 259.514,352.326 258.5,353.5C 252.167,353.5 245.833,353.5 239.5,353.5C 239.5,353.167 239.5,352.833 239.5,352.5C 242.518,352.665 245.518,352.498 248.5,352C 249.416,351.722 250.082,351.222 250.5,350.5 Z"/></g>
<g><path style="opacity:1" fill="#eeb53d" d="M 291.5,346.5 C 289.219,347.314 287.219,348.648 285.5,350.5C 276.547,351.97 267.547,352.97 258.5,353.5C 259.514,352.326 260.847,351.66 262.5,351.5C 265.388,352.01 267.721,351.344 269.5,349.5C 270.5,349.5 271.5,349.5 272.5,349.5C 278.895,348.874 285.229,347.874 291.5,346.5 Z"/></g>
<g><path style="opacity:1" fill="#e29467" d="M 234.5,353.5 C 235.167,353.5 235.833,353.5 236.5,353.5C 236.423,354.75 235.756,355.583 234.5,356C 229.595,356.327 225.262,357.827 221.5,360.5C 220.833,360.5 220.167,360.5 219.5,360.5C 220.007,359.141 221.007,358.141 222.5,357.5C 226.331,355.58 230.331,354.247 234.5,353.5 Z"/></g>
<g><path style="opacity:0.157" fill="#dba9b2" d="M 10.5,315.5 C 11.8333,317.167 13.1667,318.833 14.5,320.5C 15.4835,325.608 16.8169,330.608 18.5,335.5C 21.8383,344.016 24.8383,352.683 27.5,361.5C 28.4168,362.127 29.4168,362.461 30.5,362.5C 31.3061,365.549 32.3061,368.549 33.5,371.5C 33.366,373.292 33.6993,374.958 34.5,376.5C 32.9069,375.652 31.7403,374.319 31,372.5C 21.9556,354.291 15.1223,335.291 10.5,315.5 Z"/></g>
<g><path style="opacity:1" fill="#ec9b4a" d="M 219.5,360.5 C 220.167,360.5 220.833,360.5 221.5,360.5C 218.322,363.258 214.655,365.258 210.5,366.5C 210.5,366.167 210.5,365.833 210.5,365.5C 213.24,363.44 216.24,361.774 219.5,360.5 Z"/></g>
<g><path style="opacity:0.271" fill="#f5cb73" d="M 485.5,358.5 C 483.86,362.486 482.194,366.486 480.5,370.5C 480.043,371.298 479.376,371.631 478.5,371.5C 477.903,371.265 477.57,370.765 477.5,370C 478.943,366.894 480.276,363.727 481.5,360.5C 482.524,359.147 483.857,358.48 485.5,358.5 Z"/></g>
<g><path style="opacity:1" fill="#a94944" d="M 210.5,365.5 C 210.5,365.833 210.5,366.167 210.5,366.5C 204.894,369.442 200.227,373.442 196.5,378.5C 191.515,381.991 188.181,386.658 186.5,392.5C 185.833,393.167 185.167,393.833 184.5,394.5C 185.013,390.447 185.846,386.447 187,382.5C 192.476,379.114 196.976,374.614 200.5,369C 204.142,368.477 207.476,367.31 210.5,365.5 Z"/></g>
<g><path style="opacity:1" fill="#f5a54d" d="M 210.5,366.5 C 210.649,367.552 210.483,368.552 210,369.5C 205.678,371.323 202.512,374.323 200.5,378.5C 199.167,378.5 197.833,378.5 196.5,378.5C 200.227,373.442 204.894,369.442 210.5,366.5 Z"/></g>
<g><path style="opacity:0.4" fill="#bb7c8b" d="M 33.5,371.5 C 35.0666,373.625 36.3999,375.958 37.5,378.5C 36.5,378.5 35.5,378.5 34.5,378.5C 34.5,377.833 34.5,377.167 34.5,376.5C 33.6993,374.958 33.366,373.292 33.5,371.5 Z"/></g>
<g><path style="opacity:0.282" fill="#e4b5bf" d="M 34.5,378.5 C 35.5,378.5 36.5,378.5 37.5,378.5C 37.5923,380.848 38.5923,382.514 40.5,383.5C 41.9697,386.318 42.9697,389.318 43.5,392.5C 39.697,388.361 36.697,383.694 34.5,378.5 Z"/></g>
<g><path style="opacity:1" fill="#de854c" d="M 196.5,378.5 C 194.848,380.471 193.681,382.804 193,385.5C 190.316,387.465 188.15,389.799 186.5,392.5C 188.181,386.658 191.515,381.991 196.5,378.5 Z"/></g>
<g><path style="opacity:0.078" fill="#b57d87" d="M 40.5,383.5 C 43.2701,385.366 44.7701,388.032 45,391.5C 46.7615,393.381 48.2615,395.381 49.5,397.5C 48.5,397.5 47.5,397.5 46.5,397.5C 45.075,396.078 44.075,394.411 43.5,392.5C 42.9697,389.318 41.9697,386.318 40.5,383.5 Z"/></g>
<g><path style="opacity:1" fill="#e6904c" d="M 184.5,398.5 C 183.833,402.167 183.167,405.833 182.5,409.5C 181.034,410.347 180.2,411.68 180,413.5C 179.5,423.494 179.334,433.494 179.5,443.5C 176.573,430.053 177.24,416.72 181.5,403.5C 182.687,401.928 183.687,400.261 184.5,398.5 Z"/></g>
<g><path style="opacity:0.054" fill="#f3c970" d="M 478.5,373.5 C 469.085,393.029 456.752,410.362 441.5,425.5C 444.164,419.871 447.164,414.538 450.5,409.5C 452.012,407.683 454.012,406.683 456.5,406.5C 457.828,403.644 458.828,400.644 459.5,397.5C 461.478,395.609 463.478,393.609 465.5,391.5C 467.732,385.367 470.732,379.701 474.5,374.5C 475.736,373.754 477.07,373.421 478.5,373.5 Z"/></g>
<g><path style="opacity:1" fill="#ce7450" d="M 186.5,392.5 C 186.741,394.898 186.074,396.898 184.5,398.5C 183.687,400.261 182.687,401.928 181.5,403.5C 181.677,400.163 182.677,397.163 184.5,394.5C 185.167,393.833 185.833,393.167 186.5,392.5 Z"/></g>
<g><path style="opacity:1" fill="#f6aa1d" d="M 196.5,378.5 C 197.833,378.5 199.167,378.5 200.5,378.5C 198.321,381.671 196.321,385.004 194.5,388.5C 193.311,389.429 191.978,389.762 190.5,389.5C 190.279,392.87 189.279,395.87 187.5,398.5C 188.014,400.605 188.347,402.439 188.5,404C 187.667,404.833 186.833,405.667 186,406.5C 179.242,424.679 180.075,442.679 188.5,460.5C 192.459,462.246 193.793,465.079 192.5,469C 193.967,470.098 194.801,471.598 195,473.5C 196.945,474.863 199.112,475.697 201.5,476C 199.617,481.78 201.617,484.113 207.5,483C 207.043,483.414 206.709,483.914 206.5,484.5C 207.961,486.517 209.294,488.517 210.5,490.5C 207.962,489.957 205.628,488.957 203.5,487.5C 200.19,483.883 196.857,480.216 193.5,476.5C 193.657,475.127 193.49,473.793 193,472.5C 190.908,470.525 189.075,468.525 187.5,466.5C 187.794,462.433 186.46,459.1 183.5,456.5C 183.455,452.654 182.622,448.987 181,445.5C 179.997,433.398 180.497,421.398 182.5,409.5C 183.167,405.833 183.833,402.167 184.5,398.5C 186.074,396.898 186.741,394.898 186.5,392.5C 188.15,389.799 190.316,387.465 193,385.5C 193.681,382.804 194.848,380.471 196.5,378.5 Z"/></g>
<g><path style="opacity:0.078" fill="#d9a9b2" d="M 46.5,397.5 C 47.5,397.5 48.5,397.5 49.5,397.5C 50.038,399.117 50.3713,400.784 50.5,402.5C 51.5,402.5 52.5,402.5 53.5,402.5C 54.8136,405.144 56.1469,407.81 57.5,410.5C 61.6335,414.123 65.3001,418.123 68.5,422.5C 69.7053,423.995 69.7053,425.328 68.5,426.5C 60.3949,417.398 53.0616,407.731 46.5,397.5 Z"/></g>
<g><path style="opacity:0.992" fill="#984859" d="M 53.5,402.5 C 56.0991,402.549 58.2658,403.549 60,405.5C 64.8585,414.913 71.3585,422.913 79.5,429.5C 81.415,431.071 82.415,433.071 82.5,435.5C 79.6877,432.344 76.3544,430.01 72.5,428.5C 70.847,428.34 69.5137,427.674 68.5,426.5C 69.7053,425.328 69.7053,423.995 68.5,422.5C 65.3001,418.123 61.6335,414.123 57.5,410.5C 56.1469,407.81 54.8136,405.144 53.5,402.5 Z"/></g>
<g><path style="opacity:0.988" fill="#eab62f" d="M 450.5,409.5 C 447.164,414.538 444.164,419.871 441.5,425.5C 438.298,425.537 436.632,427.203 436.5,430.5C 435.5,430.5 434.5,430.5 433.5,430.5C 435.448,427.051 437.948,424.051 441,421.5C 441.455,418.243 443.121,415.909 446,414.5C 446.154,411.475 447.654,409.809 450.5,409.5 Z"/></g>
<g><path style="opacity:0.082" fill="#f7d27c" d="M 441.5,425.5 C 441.631,426.239 441.464,426.906 441,427.5C 439.6,428.748 438.1,429.748 436.5,430.5C 436.632,427.203 438.298,425.537 441.5,425.5 Z"/></g>
<g><path style="opacity:1" fill="#f19f2f" d="M 182.5,409.5 C 180.497,421.398 179.997,433.398 181,445.5C 182.622,448.987 183.455,452.654 183.5,456.5C 182.833,455.833 182.167,455.167 181.5,454.5C 180.083,450.998 179.416,447.331 179.5,443.5C 179.334,433.494 179.5,423.494 180,413.5C 180.2,411.68 181.034,410.347 182.5,409.5 Z"/></g>
<g><path style="opacity:0.475" fill="#ac737d" d="M 72.5,428.5 C 76.3544,430.01 79.6877,432.344 82.5,435.5C 83.7503,437.154 85.0837,438.821 86.5,440.5C 85.5,440.5 84.5,440.5 83.5,440.5C 82.2794,439.972 81.1127,439.305 80,438.5C 77.2985,435.301 74.7985,431.968 72.5,428.5 Z"/></g>
<g><path style="opacity:0.061" fill="#d8a9b0" d="M 83.5,440.5 C 84.5,440.5 85.5,440.5 86.5,440.5C 89.9803,442.643 92.3137,445.643 93.5,449.5C 89.1775,447.507 85.8442,444.507 83.5,440.5 Z"/></g>
<g><path style="opacity:0.416" fill="#f5c96a" d="M 433.5,430.5 C 434.5,430.5 435.5,430.5 436.5,430.5C 436.461,431.583 436.127,432.583 435.5,433.5C 430.745,438.928 425.411,443.595 419.5,447.5C 420.038,445.883 420.371,444.216 420.5,442.5C 424.929,438.396 429.263,434.396 433.5,430.5 Z"/></g>
<g><path style="opacity:0.137" fill="#f7d786" d="M 419.5,447.5 C 417.617,449.45 415.617,451.45 413.5,453.5C 412.583,454.127 411.583,454.461 410.5,454.5C 411.851,450.238 414.851,447.904 419.5,447.5 Z"/></g>
<g><path style="opacity:1" fill="#a7443e" d="M 181.5,403.5 C 177.24,416.72 176.573,430.053 179.5,443.5C 179.416,447.331 180.083,450.998 181.5,454.5C 180.167,454.5 178.833,454.5 177.5,454.5C 177.441,446.051 176.441,437.717 174.5,429.5C 175.704,422.699 176.704,415.865 177.5,409C 177.537,406.167 178.871,404.333 181.5,403.5 Z"/></g>
<g><path style="opacity:0.012" fill="#e6b7c4" d="M 93.5,449.5 C 96.8585,450.611 99.8585,452.278 102.5,454.5C 102.5,455.167 102.5,455.833 102.5,456.5C 99.2085,454.542 96.2085,452.209 93.5,449.5 Z"/></g>
<g><path style="opacity:1" fill="#9a485b" d="M 82.5,435.5 C 84.5273,435.338 86.5273,435.505 88.5,436C 90.1118,438.322 91.4452,440.822 92.5,443.5C 94.1667,444.333 95.8333,445.167 97.5,446C 99.5443,450.192 102.878,452.692 107.5,453.5C 108.453,455.455 109.787,457.122 111.5,458.5C 115.489,459.783 118.155,462.45 119.5,466.5C 117.883,465.962 116.216,465.629 114.5,465.5C 113.888,462.303 111.888,460.969 108.5,461.5C 108.5,461.167 108.5,460.833 108.5,460.5C 108.719,459.325 108.386,458.325 107.5,457.5C 105.799,456.446 104.132,455.446 102.5,454.5C 99.8585,452.278 96.8585,450.611 93.5,449.5C 92.3137,445.643 89.9803,442.643 86.5,440.5C 85.0837,438.821 83.7503,437.154 82.5,435.5 Z"/></g>
<g><path style="opacity:0.992" fill="#eeb335" d="M 420.5,442.5 C 420.371,444.216 420.038,445.883 419.5,447.5C 414.851,447.904 411.851,450.238 410.5,454.5C 408.396,454.201 406.396,454.534 404.5,455.5C 398.545,459.83 392.545,464.164 386.5,468.5C 392.934,461.121 400.6,455.455 409.5,451.5C 412.871,448.129 416.537,445.129 420.5,442.5 Z"/></g>
<g><path style="opacity:0.027" fill="#bb8391" d="M 102.5,454.5 C 104.132,455.446 105.799,456.446 107.5,457.5C 108.386,458.325 108.719,459.325 108.5,460.5C 105.964,459.963 103.964,458.63 102.5,456.5C 102.5,455.833 102.5,455.167 102.5,454.5 Z"/></g>
<g><path style="opacity:0.278" fill="#f6cd7a" d="M 410.5,454.5 C 401.286,463.029 390.953,470.029 379.5,475.5C 379.369,474.761 379.536,474.094 380,473.5C 382.406,471.913 384.572,470.247 386.5,468.5C 392.545,464.164 398.545,459.83 404.5,455.5C 406.396,454.534 408.396,454.201 410.5,454.5 Z"/></g>
<g><path style="opacity:1" fill="#e58d32" d="M 183.5,456.5 C 186.46,459.1 187.794,462.433 187.5,466.5C 186.883,466.389 186.383,466.056 186,465.5C 185.151,462.479 184.317,459.479 183.5,456.5 Z"/></g>
<g><path style="opacity:0.255" fill="#d5a4b0" d="M 108.5,461.5 C 111.888,460.969 113.888,462.303 114.5,465.5C 112.264,464.454 110.264,463.121 108.5,461.5 Z"/></g>
<g><path style="opacity:0.012" fill="#eab8c2" d="M 114.5,465.5 C 116.216,465.629 117.883,465.962 119.5,466.5C 119.5,467.167 119.5,467.833 119.5,468.5C 117.326,468.25 115.659,467.25 114.5,465.5 Z"/></g>
<g><path style="opacity:1" fill="#d77e34" d="M 187.5,466.5 C 189.075,468.525 190.908,470.525 193,472.5C 193.49,473.793 193.657,475.127 193.5,476.5C 191.142,473.454 189.142,470.121 187.5,466.5 Z"/></g>
<g><path style="opacity:0.192" fill="#ce98a1" d="M 119.5,468.5 C 123.096,468.834 126.429,470 129.5,472C 130.823,472.816 131.489,473.983 131.5,475.5C 128.976,474.178 126.31,473.012 123.5,472C 121.907,471.051 120.574,469.885 119.5,468.5 Z"/></g>
<g><path style="opacity:0.718" fill="#e9b43e" d="M 386.5,468.5 C 384.572,470.247 382.406,471.913 380,473.5C 379.536,474.094 379.369,474.761 379.5,475.5C 379.167,475.5 378.833,475.5 378.5,475.5C 375.924,475.468 373.591,476.135 371.5,477.5C 375.212,472.481 380.212,469.481 386.5,468.5 Z"/></g>
<g><path style="opacity:0.067" fill="#dcadb4" d="M 131.5,475.5 C 134.231,476.027 136.898,476.86 139.5,478C 140.252,478.671 140.586,479.504 140.5,480.5C 136.701,479.985 133.701,478.319 131.5,475.5 Z"/></g>
<g><path style="opacity:0.016" fill="#f6d484" d="M 378.5,475.5 C 374.909,479.13 370.575,481.464 365.5,482.5C 365.5,481.833 365.5,481.167 365.5,480.5C 366.895,478.621 368.895,477.621 371.5,477.5C 373.591,476.135 375.924,475.468 378.5,475.5 Z"/></g>
<g><path style="opacity:0.227" fill="#e7b7c0" d="M 140.5,480.5 C 142.781,480.077 144.448,480.744 145.5,482.5C 143.302,482.88 141.635,482.213 140.5,480.5 Z"/></g>
<g><path style="opacity:1" fill="#a74137" d="M 181.5,454.5 C 182.167,455.167 182.833,455.833 183.5,456.5C 184.317,459.479 185.151,462.479 186,465.5C 186.383,466.056 186.883,466.389 187.5,466.5C 189.142,470.121 191.142,473.454 193.5,476.5C 196.857,480.216 200.19,483.883 203.5,487.5C 200.833,487.5 198.167,487.5 195.5,487.5C 195.5,485.167 195.5,482.833 195.5,480.5C 192.956,480.896 190.789,480.229 189,478.5C 187.544,471.827 185.211,465.494 182,459.5C 181.506,457.866 181.34,456.199 181.5,454.5 Z"/></g>
<g><path style="opacity:0.047" fill="#ecbd54" d="M 365.5,480.5 C 365.5,481.167 365.5,481.833 365.5,482.5C 361.485,482.859 358.152,484.525 355.5,487.5C 354.833,487.5 354.167,487.5 353.5,487.5C 350.361,487.599 348.027,488.932 346.5,491.5C 344.958,492.301 343.292,492.634 341.5,492.5C 341.167,492.5 340.833,492.5 340.5,492.5C 340.33,491.178 340.663,490.011 341.5,489C 346.376,487.107 351.376,485.774 356.5,485C 357.056,484.617 357.389,484.117 357.5,483.5C 359.719,481.394 362.385,480.394 365.5,480.5 Z"/></g>
<g><path style="opacity:0.008" fill="#fbdd9a" d="M 365.5,482.5 C 363.008,485.675 359.674,487.341 355.5,487.5C 358.152,484.525 361.485,482.859 365.5,482.5 Z"/></g>
<g><path style="opacity:0.353" fill="#cc9ba5" d="M 145.5,482.5 C 151.58,484.616 157.747,486.616 164,488.5C 166.693,489.761 169.193,491.095 171.5,492.5C 170.833,492.5 170.167,492.5 169.5,492.5C 167.585,492.784 165.919,492.451 164.5,491.5C 163.817,489.824 162.483,489.157 160.5,489.5C 156.882,488.462 153.215,487.295 149.5,486C 147.681,485.26 146.348,484.093 145.5,482.5 Z"/></g>
<g><path style="opacity:0.994" fill="#984456" d="M 119.5,466.5 C 126.651,466.577 132.318,469.577 136.5,475.5C 142.911,477.54 149.245,479.707 155.5,482C 158.952,484.362 162.618,486.362 166.5,488C 168.5,488.333 170.5,488.667 172.5,489C 178.076,493.358 184.41,495.191 191.5,494.5C 191.5,495.5 191.5,496.5 191.5,497.5C 189.139,497.326 186.806,496.993 184.5,496.5C 182.833,496.5 181.167,496.5 179.5,496.5C 178.448,494.744 176.781,494.077 174.5,494.5C 174.167,494.5 173.833,494.5 173.5,494.5C 173.5,493.167 172.833,492.5 171.5,492.5C 169.193,491.095 166.693,489.761 164,488.5C 157.747,486.616 151.58,484.616 145.5,482.5C 144.448,480.744 142.781,480.077 140.5,480.5C 140.586,479.504 140.252,478.671 139.5,478C 136.898,476.86 134.231,476.027 131.5,475.5C 131.489,473.983 130.823,472.816 129.5,472C 126.429,470 123.096,468.834 119.5,468.5C 119.5,467.833 119.5,467.167 119.5,466.5 Z"/></g>
<g><path style="opacity:1" fill="#f0b123" d="M 357.5,483.5 C 357.389,484.117 357.056,484.617 356.5,485C 351.376,485.774 346.376,487.107 341.5,489C 340.663,490.011 340.33,491.178 340.5,492.5C 336.777,492.534 333.777,493.867 331.5,496.5C 329.833,496.5 328.167,496.5 326.5,496.5C 324.801,496.34 323.134,496.506 321.5,497C 320.244,497.417 319.577,498.25 319.5,499.5C 315.988,498.945 312.988,499.612 310.5,501.5C 308.5,501.5 306.5,501.5 304.5,501.5C 304.944,499.887 305.944,498.72 307.5,498C 310.833,497.667 314.167,497.333 317.5,497C 318.5,496 319.5,495 320.5,494C 324.918,493.792 329.251,493.126 333.5,492C 336.102,487.2 340.102,485.367 345.5,486.5C 345.5,485.167 345.5,483.833 345.5,482.5C 349.534,482.505 353.534,482.838 357.5,483.5 Z"/></g>
<g><path style="opacity:0.051" fill="#ffe4a3" d="M 353.5,487.5 C 352.652,489.093 351.319,490.26 349.5,491C 348.552,491.483 347.552,491.649 346.5,491.5C 348.027,488.932 350.361,487.599 353.5,487.5 Z"/></g>
<g><path style="opacity:0.018" fill="#f9d4dc" d="M 160.5,489.5 C 162.483,489.157 163.817,489.824 164.5,491.5C 162.517,491.843 161.183,491.176 160.5,489.5 Z"/></g>
<g><path style="opacity:1" fill="#af4e30" d="M 203.5,487.5 C 205.628,488.957 207.962,489.957 210.5,490.5C 210.5,491.167 210.5,491.833 210.5,492.5C 206.513,492.989 204.18,491.322 203.5,487.5 Z"/></g>
<g><path style="opacity:0.025" fill="#fbdee1" d="M 169.5,492.5 C 170.167,492.5 170.833,492.5 171.5,492.5C 172.833,492.5 173.5,493.167 173.5,494.5C 171.517,494.843 170.183,494.176 169.5,492.5 Z"/></g>
<g><path style="opacity:0.3" fill="#ddafba" d="M 174.5,494.5 C 176.781,494.077 178.448,494.744 179.5,496.5C 177.302,496.88 175.635,496.213 174.5,494.5 Z"/></g>
<g><path style="opacity:1" fill="#b4542d" d="M 210.5,492.5 C 212.374,493.63 214.374,494.63 216.5,495.5C 217.298,495.957 217.631,496.624 217.5,497.5C 216.167,497.5 214.833,497.5 213.5,497.5C 211.721,496.33 210.721,494.664 210.5,492.5 Z"/></g>
<g><path style="opacity:0.112" fill="#fde6a5" d="M 340.5,492.5 C 340.833,492.5 341.167,492.5 341.5,492.5C 339.889,494.095 337.889,495.261 335.5,496C 334.207,496.49 332.873,496.657 331.5,496.5C 333.777,493.867 336.777,492.534 340.5,492.5 Z"/></g>
<g><path style="opacity:0.009" fill="#fadfe1" d="M 179.5,496.5 C 181.167,496.5 182.833,496.5 184.5,496.5C 184.5,497.167 184.5,497.833 184.5,498.5C 182.302,498.88 180.635,498.213 179.5,496.5 Z"/></g>
<g><path style="opacity:0.159" fill="#b9808c" d="M 184.5,496.5 C 186.806,496.993 189.139,497.326 191.5,497.5C 192.167,497.5 192.833,497.5 193.5,497.5C 193.5,498.167 193.5,498.833 193.5,499.5C 192.833,499.5 192.167,499.5 191.5,499.5C 189.097,499.552 186.764,499.219 184.5,498.5C 184.5,497.833 184.5,497.167 184.5,496.5 Z"/></g>
<g><path style="opacity:0.153" fill="#e7c16e" d="M 326.5,496.5 C 326.5,497.167 326.5,497.833 326.5,498.5C 324.236,499.219 321.903,499.552 319.5,499.5C 319.577,498.25 320.244,497.417 321.5,497C 323.134,496.506 324.801,496.34 326.5,496.5 Z"/></g>
<g><path style="opacity:0.008" fill="#fef2c3" d="M 326.5,496.5 C 328.167,496.5 329.833,496.5 331.5,496.5C 330.365,498.213 328.698,498.88 326.5,498.5C 326.5,497.833 326.5,497.167 326.5,496.5 Z"/></g>
<g><path style="opacity:1" fill="#c26b23" d="M 217.5,497.5 C 221.002,497.076 223.335,498.41 224.5,501.5C 221.805,500.572 219.472,499.239 217.5,497.5 Z"/></g>
<g><path style="opacity:0.106" fill="#f9d9d9" d="M 191.5,499.5 C 192.167,499.5 192.833,499.5 193.5,499.5C 195.781,499.077 197.448,499.744 198.5,501.5C 196.473,501.662 194.473,501.495 192.5,501C 191.944,500.617 191.611,500.117 191.5,499.5 Z"/></g>
<g><path style="opacity:1" fill="#9a3e4c" d="M 193.5,497.5 C 198.301,497.221 202.968,497.888 207.5,499.5C 209.693,499.281 211.693,498.615 213.5,497.5C 214.833,497.5 216.167,497.5 217.5,497.5C 219.472,499.239 221.805,500.572 224.5,501.5C 226.072,502.687 227.739,503.687 229.5,504.5C 226.763,504.401 224.096,504.735 221.5,505.5C 221.196,504.85 220.863,504.183 220.5,503.5C 215.863,502.57 211.196,501.903 206.5,501.5C 204.833,501.5 203.167,501.5 201.5,501.5C 200.5,501.5 199.5,501.5 198.5,501.5C 197.448,499.744 195.781,499.077 193.5,499.5C 193.5,498.833 193.5,498.167 193.5,497.5 Z"/></g>
<g><path style="opacity:0.208" fill="#f8dc9e" d="M 319.5,499.5 C 317.012,501.388 314.012,502.055 310.5,501.5C 312.988,499.612 315.988,498.945 319.5,499.5 Z"/></g>
<g><path style="opacity:0.153" fill="#f0bbc5" d="M 201.5,501.5 C 203.167,501.5 204.833,501.5 206.5,501.5C 206.5,502.167 206.5,502.833 206.5,503.5C 204.302,503.88 202.635,503.213 201.5,501.5 Z"/></g>
<g><path style="opacity:0.565" fill="#ae6f7b" d="M 206.5,501.5 C 211.196,501.903 215.863,502.57 220.5,503.5C 220.863,504.183 221.196,504.85 221.5,505.5C 220.833,505.5 220.167,505.5 219.5,505.5C 218.833,505.5 218.167,505.5 217.5,505.5C 214.663,503.598 211.329,502.931 207.5,503.5C 207.167,503.5 206.833,503.5 206.5,503.5C 206.5,502.833 206.5,502.167 206.5,501.5 Z"/></g>
<g><path style="opacity:0.575" fill="#eab84e" d="M 304.5,501.5 C 304.5,502.167 304.5,502.833 304.5,503.5C 304.167,503.5 303.833,503.5 303.5,503.5C 299.671,502.931 296.337,503.598 293.5,505.5C 292.5,505.5 291.5,505.5 290.5,505.5C 288.139,505.326 285.806,504.993 283.5,504.5C 285.562,503.224 287.896,502.39 290.5,502C 295.155,501.501 299.821,501.334 304.5,501.5 Z"/></g>
<g><path style="opacity:0.012" fill="#fce4a1" d="M 304.5,501.5 C 306.5,501.5 308.5,501.5 310.5,501.5C 309.01,503.28 307.01,503.946 304.5,503.5C 304.5,502.833 304.5,502.167 304.5,501.5 Z"/></g>
<g><path style="opacity:0.976" fill="#ab5922" d="M 224.5,501.5 C 228.048,502.13 231.381,503.13 234.5,504.5C 232.833,504.5 231.167,504.5 229.5,504.5C 227.739,503.687 226.072,502.687 224.5,501.5 Z"/></g>
<g><path style="opacity:0.016" fill="#efc8cc" d="M 207.5,503.5 C 211.329,502.931 214.663,503.598 217.5,505.5C 214.813,505.664 212.146,505.497 209.5,505C 208.584,504.722 207.918,504.222 207.5,503.5 Z"/></g>
<g><path style="opacity:0.012" fill="#fce5b4" d="M 303.5,503.5 C 303.389,504.117 303.056,504.617 302.5,505C 299.518,505.498 296.518,505.665 293.5,505.5C 296.337,503.598 299.671,502.931 303.5,503.5 Z"/></g>
<g><path style="opacity:0.204" fill="#f5c2cd" d="M 229.5,504.5 C 229.5,505.167 229.5,505.833 229.5,506.5C 225.958,506.813 222.625,506.479 219.5,505.5C 220.167,505.5 220.833,505.5 221.5,505.5C 224.096,504.735 226.763,504.401 229.5,504.5 Z"/></g>
<g><path style="opacity:0.655" fill="#9f5c50" d="M 229.5,504.5 C 231.167,504.5 232.833,504.5 234.5,504.5C 234.5,505.167 234.5,505.833 234.5,506.5C 232.833,506.5 231.167,506.5 229.5,506.5C 229.5,505.833 229.5,505.167 229.5,504.5 Z"/></g>
<g><path style="opacity:0.624" fill="#aa6c2f" d="M 234.5,504.5 C 235.833,504.5 237.167,504.5 238.5,504.5C 238.5,505.167 238.5,505.833 238.5,506.5C 237.5,506.5 236.5,506.5 235.5,506.5C 235.167,506.5 234.833,506.5 234.5,506.5C 234.5,505.833 234.5,505.167 234.5,504.5 Z"/></g>
<g><path style="opacity:0.824" fill="#e8b538" d="M 238.5,504.5 C 252.833,504.5 267.167,504.5 281.5,504.5C 281.5,505.167 281.5,505.833 281.5,506.5C 281.167,506.5 280.833,506.5 280.5,506.5C 266.5,506.5 252.5,506.5 238.5,506.5C 238.5,505.833 238.5,505.167 238.5,504.5 Z"/></g>
<g><path style="opacity:0.29" fill="#fbd48e" d="M 281.5,504.5 C 282.167,504.5 282.833,504.5 283.5,504.5C 285.806,504.993 288.139,505.326 290.5,505.5C 287.713,506.477 284.713,506.81 281.5,506.5C 281.5,505.833 281.5,505.167 281.5,504.5 Z"/></g>
<g><path style="opacity:0.158" fill="#fce7bc" d="M 235.5,506.5 C 236.5,506.5 237.5,506.5 238.5,506.5C 252.5,506.5 266.5,506.5 280.5,506.5C 280.389,507.117 280.056,507.617 279.5,508C 265.167,508.667 250.833,508.667 236.5,508C 235.944,507.617 235.611,507.117 235.5,506.5 Z"/></g>
</svg>
