<?xml version="1.0" encoding="UTF-8"?>
<!DOCTYPE svg PUBLIC "-//W3C//DTD SVG 1.1//EN" "http://www.w3.org/Graphics/SVG/1.1/DTD/svg11.dtd">
<svg xmlns="http://www.w3.org/2000/svg" version="1.1" width="295px" height="295px" style="shape-rendering:geometricPrecision; text-rendering:geometricPrecision; image-rendering:optimizeQuality; fill-rule:evenodd; clip-rule:evenodd" xmlns:xlink="http://www.w3.org/1999/xlink">
<g><path style="opacity:1" fill="#ec8390" d="M 162.5,3.5 C 161.209,3.26269 160.209,3.59603 159.5,4.5C 146.815,4.34508 134.149,4.67842 121.5,5.5C 121.5,5.16667 121.5,4.83333 121.5,4.5C 135.22,2.32607 148.886,1.99274 162.5,3.5 Z"/></g>
<g><path style="opacity:1" fill="#f53c61" d="M 159.5,4.5 C 165.055,6.97516 170.388,9.97516 175.5,13.5C 175.5,13.8333 175.5,14.1667 175.5,14.5C 175.75,18.0562 175.917,21.7228 176,25.5C 176.98,23.9411 177.813,22.2744 178.5,20.5C 180.483,21.982 182.316,23.6487 184,25.5C 186.449,30.3404 188.449,35.3404 190,40.5C 190.667,45.5 190.667,50.5 190,55.5C 187.938,59.6555 186.438,63.9888 185.5,68.5C 185.291,69.9217 184.791,71.255 184,72.5C 182.281,75.2879 180.115,77.6212 177.5,79.5C 175.518,79.9954 173.518,80.4954 171.5,81C 168.681,83.575 165.681,85.9083 162.5,88C 153.632,89.9938 144.632,90.9938 135.5,91C 134.944,91.3826 134.611,91.8826 134.5,92.5C 131.052,91.9006 128.386,92.9006 126.5,95.5C 124.518,95.9954 122.518,96.4954 120.5,97C 119.748,97.6708 119.414,98.5041 119.5,99.5C 119.027,100.906 118.027,101.573 116.5,101.5C 113.412,101.197 111.746,102.53 111.5,105.5C 105.919,104.064 103.252,106.397 103.5,112.5C 102.178,112.67 101.011,112.337 100,111.5C 99.6824,113.061 98.8491,114.228 97.5,115C 99.1066,116.049 99.7733,117.549 99.5,119.5C 98.3263,120.514 97.6596,121.847 97.5,123.5C 97.5,123.833 97.5,124.167 97.5,124.5C 95.8235,125.183 95.1568,126.517 95.5,128.5C 94.1983,130.672 93.0317,133.006 92,135.5C 91.3918,133.934 90.5585,132.6 89.5,131.5C 87.1836,127.54 84.8503,123.54 82.5,119.5C 80.8333,115.833 78.1667,113.167 74.5,111.5C 73.9717,110.279 73.305,109.113 72.5,108C 67.5864,106.195 62.5864,104.695 57.5,103.5C 57.4226,102.25 56.756,101.417 55.5,101C 45.7952,99.792 36.4619,101.125 27.5,105C 26.7476,105.671 26.4142,106.504 26.5,107.5C 18.8739,112.796 12.5406,119.463 7.5,127.5C 6.51998,124.914 6.18665,122.247 6.5,119.5C 6.70381,116.482 7.03714,113.482 7.5,110.5C 8.92381,108.485 9.59047,106.152 9.5,103.5C 9.5,103.167 9.5,102.833 9.5,102.5C 12.4312,99.9867 13.7645,96.6533 13.5,92.5C 16.4688,90.3799 17.8021,87.3799 17.5,83.5C 19.9689,82.3933 20.9689,80.3933 20.5,77.5C 23.7969,75.8665 25.4636,73.1999 25.5,69.5C 26.9063,69.0269 27.573,68.0269 27.5,66.5C 30.4015,63.6881 33.0681,60.6881 35.5,57.5C 41.2575,53.3151 45.5909,47.9818 48.5,41.5C 51.5256,41.1625 53.5256,39.4959 54.5,36.5C 54.5,35.8333 54.8333,35.5 55.5,35.5C 57.7488,34.9202 59.4154,33.5869 60.5,31.5C 60.9731,30.0937 61.9731,29.427 63.5,29.5C 65.4044,29.2624 66.7377,28.2624 67.5,26.5C 67.8417,25.6618 68.5084,25.3284 69.5,25.5C 71.8477,25.4077 73.5144,24.4077 74.5,22.5C 76.3356,20.412 78.6689,19.0787 81.5,18.5C 83.9674,18.2451 85.9674,17.2451 87.5,15.5C 90.491,15.8337 92.8243,14.8337 94.5,12.5C 97.855,12.3104 100.855,11.3104 103.5,9.5C 107.162,9.2766 110.495,8.2766 113.5,6.5C 116.206,6.4249 118.873,6.09157 121.5,5.5C 134.149,4.67842 146.815,4.34508 159.5,4.5 Z"/></g>
<g><path style="opacity:0.435" fill="#f6c3b2" d="M 164.5,3.5 C 168.122,3.32198 171.456,3.98864 174.5,5.5C 170.878,5.67802 167.544,5.01136 164.5,3.5 Z"/></g>
<g><path style="opacity:0.773" fill="#fbabb9" d="M 121.5,4.5 C 121.5,4.83333 121.5,5.16667 121.5,5.5C 118.873,6.09157 116.206,6.4249 113.5,6.5C 115.905,5.2318 118.572,4.56513 121.5,4.5 Z"/></g>
<g><path style="opacity:0.863" fill="#f29faa" d="M 113.5,6.5 C 110.495,8.2766 107.162,9.2766 103.5,9.5C 106.505,7.7234 109.838,6.7234 113.5,6.5 Z"/></g>
<g><path style="opacity:1" fill="#f67562" d="M 162.5,3.5 C 163.167,3.5 163.833,3.5 164.5,3.5C 167.544,5.01136 170.878,5.67802 174.5,5.5C 176.735,5.20528 178.735,5.53862 180.5,6.5C 177.15,6.33499 173.817,6.50166 170.5,7C 172.288,9.18436 173.954,11.351 175.5,13.5C 170.388,9.97516 165.055,6.97516 159.5,4.5C 160.209,3.59603 161.209,3.26269 162.5,3.5 Z"/></g>
<g><path style="opacity:0.545" fill="#f7c1ab" d="M 184.5,7.5 C 187.067,7.72148 189.401,8.38815 191.5,9.5C 188.772,9.82943 186.438,9.16276 184.5,7.5 Z"/></g>
<g><path style="opacity:0.643" fill="#f3a7b2" d="M 103.5,9.5 C 100.855,11.3104 97.855,12.3104 94.5,12.5C 97.0836,10.5275 100.084,9.52751 103.5,9.5 Z"/></g>
<g><path style="opacity:0.412" fill="#f3b59b" d="M 191.5,9.5 C 194.486,9.90277 197.152,10.9028 199.5,12.5C 196.189,12.6928 193.522,11.6928 191.5,9.5 Z"/></g>
<g><path style="opacity:1" fill="#e88a99" d="M 94.5,12.5 C 92.8243,14.8337 90.491,15.8337 87.5,15.5C 89.5093,13.9348 91.8427,12.9348 94.5,12.5 Z"/></g>
<g><path style="opacity:1" fill="#f76b40" d="M 180.5,6.5 C 182.099,6.23219 183.432,6.56552 184.5,7.5C 186.438,9.16276 188.772,9.82943 191.5,9.5C 193.522,11.6928 196.189,12.6928 199.5,12.5C 205.661,17.0762 212.661,20.4096 220.5,22.5C 221.492,22.3284 222.158,22.6618 222.5,23.5C 223.048,25.3936 224.048,27.0603 225.5,28.5C 228.732,30.2228 232.065,31.5561 235.5,32.5C 236.035,34.4456 237.368,35.4456 239.5,35.5C 241.167,36.5 242.5,37.8333 243.5,39.5C 248.103,46.4384 253.77,52.4384 260.5,57.5C 262.164,59.6791 261.83,61.5125 259.5,63C 262.151,63.1534 264.484,63.9867 266.5,65.5C 267.228,71.9715 270.228,76.9715 275.5,80.5C 275.833,83.1667 276.167,85.8333 276.5,88.5C 277.5,88.5 278.5,88.5 279.5,88.5C 279.335,92.5788 280.669,95.9122 283.5,98.5C 283.804,101.522 284.304,104.522 285,107.5C 285.383,108.056 285.883,108.389 286.5,108.5C 286.5,109.833 286.5,111.167 286.5,112.5C 287.501,118.177 288.668,123.843 290,129.5C 290.5,139.494 290.666,149.494 290.5,159.5C 289.566,160.568 289.232,161.901 289.5,163.5C 284.27,173.066 276.937,180.733 267.5,186.5C 257.448,189.906 247.115,191.072 236.5,190C 232.761,187.749 228.761,186.249 224.5,185.5C 219.559,181.735 214.726,177.735 210,173.5C 207.523,167.235 205.356,160.901 203.5,154.5C 203.822,148.642 203.489,142.975 202.5,137.5C 202.5,137.167 202.5,136.833 202.5,136.5C 202.462,133.379 201.795,130.379 200.5,127.5C 201.268,124.846 201.434,122.179 201,119.5C 199.293,118.862 197.46,118.862 195.5,119.5C 195.512,116.858 194.179,115.525 191.5,115.5C 191.5,115.167 191.5,114.833 191.5,114.5C 191.001,111.736 189.335,110.069 186.5,109.5C 185.5,108.167 184.5,106.833 183.5,105.5C 181.687,100.419 178.021,98.0855 172.5,98.5C 170.824,96.1663 168.491,95.1663 165.5,95.5C 163.745,94.2082 161.745,93.2082 159.5,92.5C 160.901,91.4793 162.235,90.4793 163.5,89.5C 165.849,87.659 168.515,86.3257 171.5,85.5C 173.857,85.6633 176.19,85.4966 178.5,85C 180.029,81.9712 182.362,79.8045 185.5,78.5C 185.291,77.914 184.957,77.414 184.5,77C 185.249,75.2663 185.749,73.433 186,71.5C 188.743,69.0197 190.743,66.0197 192,62.5C 192.82,55.9863 192.653,49.6529 191.5,43.5C 190.912,33.317 187.079,24.6504 180,17.5C 179.517,16.552 179.351,15.552 179.5,14.5C 178.167,14.5 176.833,14.5 175.5,14.5C 175.5,14.1667 175.5,13.8333 175.5,13.5C 173.954,11.351 172.288,9.18436 170.5,7C 173.817,6.50166 177.15,6.33499 180.5,6.5 Z"/></g>
<g><path style="opacity:1" fill="#f0a187" d="M 199.5,12.5 C 207.081,14.6895 214.081,18.0228 220.5,22.5C 212.661,20.4096 205.661,17.0762 199.5,12.5 Z"/></g>
<g><path style="opacity:0.737" fill="#f2a6b1" d="M 87.5,15.5 C 85.9674,17.2451 83.9674,18.2451 81.5,18.5C 83.0326,16.7549 85.0326,15.7549 87.5,15.5 Z"/></g>
<g><path style="opacity:0.765" fill="#ec8e9f" d="M 74.5,22.5 C 73.5144,24.4077 71.8477,25.4077 69.5,25.5C 70.6594,23.7497 72.326,22.7497 74.5,22.5 Z"/></g>
<g><path style="opacity:0.647" fill="#f2a5b2" d="M 67.5,26.5 C 66.7377,28.2624 65.4044,29.2624 63.5,29.5C 64.2623,27.7376 65.5956,26.7376 67.5,26.5 Z"/></g>
<g><path style="opacity:1" fill="#ed8a6c" d="M 222.5,23.5 C 227.132,26.1427 231.465,29.1427 235.5,32.5C 232.065,31.5561 228.732,30.2228 225.5,28.5C 224.048,27.0603 223.048,25.3936 222.5,23.5 Z"/></g>
<g><path style="opacity:1" fill="#f04758" d="M 175.5,14.5 C 176.833,14.5 178.167,14.5 179.5,14.5C 179.351,15.552 179.517,16.552 180,17.5C 187.079,24.6504 190.912,33.317 191.5,43.5C 192.749,52.7258 190.749,61.0592 185.5,68.5C 186.438,63.9888 187.938,59.6555 190,55.5C 190.667,50.5 190.667,45.5 190,40.5C 188.449,35.3404 186.449,30.3404 184,25.5C 182.316,23.6487 180.483,21.982 178.5,20.5C 177.813,22.2744 176.98,23.9411 176,25.5C 175.917,21.7228 175.75,18.0562 175.5,14.5 Z"/></g>
<g><path style="opacity:0.992" fill="#f3bba6" d="M 235.5,32.5 C 237.23,33.0256 238.564,34.0256 239.5,35.5C 237.368,35.4456 236.035,34.4456 235.5,32.5 Z"/></g>
<g><path style="opacity:0.878" fill="#ee93a4" d="M 60.5,31.5 C 59.4154,33.5869 57.7488,34.9202 55.5,35.5C 56.5846,33.4131 58.2512,32.0798 60.5,31.5 Z"/></g>
<g><path style="opacity:1" fill="#ea7f94" d="M 54.5,36.5 C 53.5256,39.4959 51.5256,41.1625 48.5,41.5C 49.9108,39.086 51.9108,37.4194 54.5,36.5 Z"/></g>
<g><path style="opacity:1" fill="#ec977d" d="M 243.5,39.5 C 250.202,44.5351 255.869,50.5351 260.5,57.5C 253.77,52.4384 248.103,46.4384 243.5,39.5 Z"/></g>
<g><path style="opacity:0.612" fill="#f3afbc" d="M 41.5,48.5 C 40.9202,50.7488 39.5869,52.4154 37.5,53.5C 38.0798,51.2512 39.4131,49.5846 41.5,48.5 Z"/></g>
<g><path style="opacity:1" fill="#e45772" d="M 48.5,41.5 C 45.5909,47.9818 41.2575,53.3151 35.5,57.5C 35.5,56.8333 35.5,56.1667 35.5,55.5C 35.8333,54.5 36.5,53.8333 37.5,53.5C 39.5869,52.4154 40.9202,50.7488 41.5,48.5C 43.5,45.8333 45.8333,43.5 48.5,41.5 Z"/></g>
<g><path style="opacity:0.765" fill="#f09fac" d="M 35.5,55.5 C 35.5,56.1667 35.5,56.8333 35.5,57.5C 33.0681,60.6881 30.4015,63.6881 27.5,66.5C 29.4354,62.2934 32.1021,58.6267 35.5,55.5 Z"/></g>
<g><path style="opacity:1" fill="#ee8c69" d="M 260.5,57.5 C 262.878,59.8785 264.878,62.5451 266.5,65.5C 264.878,62.5451 262.878,59.8785 260.5,57.5 Z"/></g>
<g><path style="opacity:0.475" fill="#f1a4b6" d="M 27.5,66.5 C 27.573,68.0269 26.9063,69.0269 25.5,69.5C 25.427,67.9731 26.0937,66.9731 27.5,66.5 Z"/></g>
<g><path style="opacity:1" fill="#ef8898" d="M 25.5,69.5 C 25.4636,73.1999 23.7969,75.8665 20.5,77.5C 21.6693,74.4887 23.336,71.822 25.5,69.5 Z"/></g>
<g><path style="opacity:1" fill="#ef8b6c" d="M 266.5,65.5 C 270.251,69.9946 273.251,74.9946 275.5,80.5C 270.228,76.9715 267.228,71.9715 266.5,65.5 Z"/></g>
<g><path style="opacity:1" fill="#e68494" d="M 20.5,77.5 C 20.9689,80.3933 19.9689,82.3933 17.5,83.5C 17.9925,81.1815 18.9925,79.1815 20.5,77.5 Z"/></g>
<g><path style="opacity:1" fill="#f57354" d="M 191.5,43.5 C 192.653,49.6529 192.82,55.9863 192,62.5C 190.743,66.0197 188.743,69.0197 186,71.5C 185.749,73.433 185.249,75.2663 184.5,77C 184.957,77.414 185.291,77.914 185.5,78.5C 182.362,79.8045 180.029,81.9712 178.5,85C 176.19,85.4966 173.857,85.6633 171.5,85.5C 173.5,83.5 175.5,81.5 177.5,79.5C 180.115,77.6212 182.281,75.2879 184,72.5C 184.791,71.255 185.291,69.9217 185.5,68.5C 190.749,61.0592 192.749,52.7258 191.5,43.5 Z"/></g>
<g><path style="opacity:1" fill="#e74a61" d="M 177.5,79.5 C 175.5,81.5 173.5,83.5 171.5,85.5C 168.515,86.3257 165.849,87.659 163.5,89.5C 160.219,89.4203 157.219,90.087 154.5,91.5C 147.776,91.2441 141.109,91.5774 134.5,92.5C 134.611,91.8826 134.944,91.3826 135.5,91C 144.632,90.9938 153.632,89.9938 162.5,88C 165.681,85.9083 168.681,83.575 171.5,81C 173.518,80.4954 175.518,79.9954 177.5,79.5 Z"/></g>
<g><path style="opacity:1" fill="#ee8865" d="M 275.5,80.5 C 277.341,82.8485 278.674,85.5152 279.5,88.5C 278.5,88.5 277.5,88.5 276.5,88.5C 276.167,85.8333 275.833,83.1667 275.5,80.5 Z"/></g>
<g><path style="opacity:1" fill="#ec7385" d="M 17.5,83.5 C 17.8021,87.3799 16.4688,90.3799 13.5,92.5C 14.0749,89.0884 15.4082,86.0884 17.5,83.5 Z"/></g>
<g><path style="opacity:1" fill="#f5968b" d="M 163.5,89.5 C 162.235,90.4793 160.901,91.4793 159.5,92.5C 161.745,93.2082 163.745,94.2082 165.5,95.5C 162.733,95.1417 160.067,94.475 157.5,93.5C 156.5,92.8333 155.5,92.1667 154.5,91.5C 157.219,90.087 160.219,89.4203 163.5,89.5 Z"/></g>
<g><path style="opacity:0.482" fill="#f4b4b5" d="M 154.5,91.5 C 155.5,92.1667 156.5,92.8333 157.5,93.5C 149.837,92.249 142.171,92.249 134.5,93.5C 134.5,93.1667 134.5,92.8333 134.5,92.5C 141.109,91.5774 147.776,91.2441 154.5,91.5 Z"/></g>
<g><path style="opacity:1" fill="#eb7285" d="M 134.5,92.5 C 134.5,92.8333 134.5,93.1667 134.5,93.5C 132.786,94.7384 130.786,95.405 128.5,95.5C 127.833,95.5 127.167,95.5 126.5,95.5C 128.386,92.9006 131.052,91.9006 134.5,92.5 Z"/></g>
<g><path style="opacity:0.957" fill="#f4b4a4" d="M 165.5,95.5 C 168.491,95.1663 170.824,96.1663 172.5,98.5C 169.843,98.0652 167.509,97.0652 165.5,95.5 Z"/></g>
<g><path style="opacity:1" fill="#ea9275" d="M 279.5,88.5 C 281.4,91.5178 282.733,94.8512 283.5,98.5C 280.669,95.9122 279.335,92.5788 279.5,88.5 Z"/></g>
<g><path style="opacity:0.996" fill="#e98c98" d="M 126.5,95.5 C 127.167,95.5 127.833,95.5 128.5,95.5C 125.744,97.2038 122.744,98.5371 119.5,99.5C 119.414,98.5041 119.748,97.6708 120.5,97C 122.518,96.4954 124.518,95.9954 126.5,95.5 Z"/></g>
<g><path style="opacity:1" fill="#f39175" d="M 172.5,98.5 C 178.021,98.0855 181.687,100.419 183.5,105.5C 179.656,103.413 175.989,101.08 172.5,98.5 Z"/></g>
<g><path style="opacity:1" fill="#e6768a" d="M 13.5,92.5 C 13.7645,96.6533 12.4312,99.9867 9.5,102.5C 10.3208,98.8733 11.6541,95.54 13.5,92.5 Z"/></g>
<g><path style="opacity:1" fill="#e77f8f" d="M 116.5,101.5 C 115.055,103.063 113.389,104.396 111.5,105.5C 111.746,102.53 113.412,101.197 116.5,101.5 Z"/></g>
<g><path style="opacity:1" fill="#e9536e" d="M 57.5,103.5 C 46.7572,102.545 36.4239,103.878 26.5,107.5C 26.4142,106.504 26.7476,105.671 27.5,105C 36.4619,101.125 45.7952,99.792 55.5,101C 56.756,101.417 57.4226,102.25 57.5,103.5 Z"/></g>
<g><path style="opacity:1" fill="#a0364d" d="M 57.5,103.5 C 62.5864,104.695 67.5864,106.195 72.5,108C 73.305,109.113 73.9717,110.279 74.5,111.5C 76.8333,114.5 79.5,117.167 82.5,119.5C 84.8503,123.54 87.1836,127.54 89.5,131.5C 89.6997,134.63 90.3664,137.63 91.5,140.5C 91.085,147.093 91.7517,153.426 93.5,159.5C 93.1706,162.228 93.8372,164.562 95.5,166.5C 97.1584,169.789 98.8251,173.123 100.5,176.5C 100.427,178.027 101.094,179.027 102.5,179.5C 102.738,181.404 103.738,182.738 105.5,183.5C 107.5,184.833 109.167,186.5 110.5,188.5C 110.833,189.5 111.5,190.167 112.5,190.5C 112.539,191.583 112.873,192.583 113.5,193.5C 116.927,196.547 120.927,197.88 125.5,197.5C 126.492,197.328 127.158,197.662 127.5,198.5C 129.102,200.074 131.102,200.741 133.5,200.5C 135.42,201.065 137.087,202.065 138.5,203.5C 138.167,203.5 137.833,203.5 137.5,203.5C 134.353,203.737 131.353,204.57 128.5,206C 127.058,206.377 126.058,207.21 125.5,208.5C 122.326,209.01 119.992,210.677 118.5,213.5C 117.761,213.369 117.094,213.536 116.5,214C 112.467,217.856 109.467,222.356 107.5,227.5C 103.624,233.148 101.957,239.481 102.5,246.5C 102.516,254.214 104.183,261.548 107.5,268.5C 107.174,272.684 108.841,275.851 112.5,278C 111,281.167 111.833,282 115,280.5C 118.281,281.515 119.115,283.515 117.5,286.5C 121.482,286.446 125.482,287.113 129.5,288.5C 129.611,289.117 129.944,289.617 130.5,290C 129.207,290.49 127.873,290.657 126.5,290.5C 126.167,290.5 125.833,290.5 125.5,290.5C 122.829,288.882 119.829,288.215 116.5,288.5C 114.162,286.96 111.495,286.294 108.5,286.5C 108.167,286.5 107.833,286.5 107.5,286.5C 105.038,284.382 102.205,282.715 99,281.5C 94.2771,279.719 89.4438,278.386 84.5,277.5C 83.4863,276.326 82.153,275.66 80.5,275.5C 78.847,275.34 77.5137,274.674 76.5,273.5C 76.0269,272.094 75.0269,271.427 73.5,271.5C 72.5084,271.672 71.8417,271.338 71.5,270.5C 70.2571,268.422 68.5905,266.588 66.5,265C 65.2068,264.51 63.8734,264.343 62.5,264.5C 60.2512,263.92 58.5846,262.587 57.5,260.5C 57.0269,259.094 56.0269,258.427 54.5,258.5C 53.5,258.167 52.8333,257.5 52.5,256.5C 51.4154,254.413 49.7488,253.08 47.5,252.5C 47.5123,249.858 46.179,248.525 43.5,248.5C 43.5,246.5 42.5,245.5 40.5,245.5C 40.573,243.973 39.9063,242.973 38.5,242.5C 37.5,242.167 36.8333,241.5 36.5,240.5C 37.2436,237.05 35.9103,235.384 32.5,235.5C 32.4456,233.368 31.4456,232.035 29.5,231.5C 27.336,229.178 25.6693,226.511 24.5,223.5C 24.7593,221.011 23.7593,219.344 21.5,218.5C 20.6618,218.158 20.3284,217.492 20.5,216.5C 18.2015,209.851 15.8682,203.184 13.5,196.5C 12.6764,193.215 12.1764,189.882 12,186.5C 11.6667,187.167 11.3333,187.833 11,188.5C 10.7996,186.68 9.96626,185.347 8.5,184.5C 8.02463,180.916 7.02463,177.583 5.5,174.5C 5.72045,169.9 5.05378,165.567 3.5,161.5C 3.5,161.167 3.5,160.833 3.5,160.5C 3.47004,146.796 4.13671,133.129 5.5,119.5C 5.83333,119.5 6.16667,119.5 6.5,119.5C 6.18665,122.247 6.51998,124.914 7.5,127.5C 12.5406,119.463 18.8739,112.796 26.5,107.5C 36.4239,103.878 46.7572,102.545 57.5,103.5 Z"/></g>
<g><path style="opacity:0.733" fill="#f2adb7" d="M 9.5,103.5 C 9.59047,106.152 8.92381,108.485 7.5,110.5C 7.40953,107.848 8.07619,105.515 9.5,103.5 Z"/></g>
<g><path style="opacity:1" fill="#ee9b82" d="M 283.5,98.5 C 285.277,101.505 286.277,104.838 286.5,108.5C 285.883,108.389 285.383,108.056 285,107.5C 284.304,104.522 283.804,101.522 283.5,98.5 Z"/></g>
<g><path style="opacity:1" fill="#f1687d" d="M 111.5,105.5 C 107.096,109.897 103.096,114.564 99.5,119.5C 99.7733,117.549 99.1066,116.049 97.5,115C 98.8491,114.228 99.6824,113.061 100,111.5C 101.011,112.337 102.178,112.67 103.5,112.5C 103.252,106.397 105.919,104.064 111.5,105.5 Z"/></g>
<g><path style="opacity:0.839" fill="#e9b2a2" d="M 186.5,109.5 C 189.335,110.069 191.001,111.736 191.5,114.5C 189.5,113.167 187.833,111.5 186.5,109.5 Z"/></g>
<g><path style="opacity:0.69" fill="#f8b8c2" d="M 7.5,110.5 C 7.03714,113.482 6.70381,116.482 6.5,119.5C 6.16667,119.5 5.83333,119.5 5.5,119.5C 5.21528,116.171 5.88195,113.171 7.5,110.5 Z"/></g>
<g><path style="opacity:1" fill="#fb899d" d="M 74.5,111.5 C 78.1667,113.167 80.8333,115.833 82.5,119.5C 79.5,117.167 76.8333,114.5 74.5,111.5 Z"/></g>
<g><path style="opacity:0.725" fill="#efb098" d="M 286.5,108.5 C 288.04,110.838 288.706,113.505 288.5,116.5C 287.833,115.167 287.167,113.833 286.5,112.5C 286.5,111.167 286.5,109.833 286.5,108.5 Z"/></g>
<g><path style="opacity:1" fill="#f07953" d="M 191.5,115.5 C 194.179,115.525 195.512,116.858 195.5,119.5C 197.46,118.862 199.293,118.862 201,119.5C 201.434,122.179 201.268,124.846 200.5,127.5C 201.795,130.379 202.462,133.379 202.5,136.5C 201.833,135.5 201.167,134.5 200.5,133.5C 199.542,131.698 198.875,129.698 198.5,127.5C 198.843,125.517 198.176,124.183 196.5,123.5C 194.833,120.833 193.167,118.167 191.5,115.5 Z"/></g>
<g><path style="opacity:0.149" fill="#f9bec6" d="M 99.5,119.5 C 99.7709,121.38 99.1042,122.713 97.5,123.5C 97.6596,121.847 98.3263,120.514 99.5,119.5 Z"/></g>
<g><path style="opacity:0.769" fill="#f6c2af" d="M 196.5,123.5 C 198.176,124.183 198.843,125.517 198.5,127.5C 197.326,126.486 196.66,125.153 196.5,123.5 Z"/></g>
<g><path style="opacity:0.918" fill="#eda0ac" d="M 97.5,124.5 C 97.3404,126.153 96.6737,127.486 95.5,128.5C 95.1568,126.517 95.8235,125.183 97.5,124.5 Z"/></g>
<g><path style="opacity:1" fill="#e49ca5" d="M 5.5,119.5 C 4.13671,133.129 3.47004,146.796 3.5,160.5C 2.34235,151.343 2.17569,142.009 3,132.5C 3.27152,127.924 4.10485,123.591 5.5,119.5 Z"/></g>
<g><path style="opacity:1" fill="#e67d8a" d="M 95.5,128.5 C 95.0405,131.877 94.3739,135.211 93.5,138.5C 92.8333,139.167 92.1667,139.833 91.5,140.5C 90.3664,137.63 89.6997,134.63 89.5,131.5C 90.5585,132.6 91.3918,133.934 92,135.5C 93.0317,133.006 94.1983,130.672 95.5,128.5 Z"/></g>
<g><path style="opacity:0.945" fill="#e98d6f" d="M 286.5,112.5 C 287.167,113.833 287.833,115.167 288.5,116.5C 290.305,122.233 291.305,128.233 291.5,134.5C 291.826,143.017 291.493,151.35 290.5,159.5C 290.666,149.494 290.5,139.494 290,129.5C 288.668,123.843 287.501,118.177 286.5,112.5 Z"/></g>
<g><path style="opacity:1" fill="#e8a07d" d="M 202.5,137.5 C 203.489,142.975 203.822,148.642 203.5,154.5C 202.065,155.913 201.065,157.58 200.5,159.5C 200.325,157.379 200.659,155.379 201.5,153.5C 202.488,148.36 202.821,143.026 202.5,137.5 Z"/></g>
<g><path style="opacity:0.702" fill="#d4a1a9" d="M 93.5,138.5 C 92.2489,145.495 92.2489,152.495 93.5,159.5C 91.7517,153.426 91.085,147.093 91.5,140.5C 92.1667,139.833 92.8333,139.167 93.5,138.5 Z"/></g>
<g><path style="opacity:0.914" fill="#fdd5c6" d="M 200.5,133.5 C 201.167,134.5 201.833,135.5 202.5,136.5C 202.5,136.833 202.5,137.167 202.5,137.5C 202.821,143.026 202.488,148.36 201.5,153.5C 201.664,146.798 201.331,140.131 200.5,133.5 Z"/></g>
<g><path style="opacity:0.698" fill="#fed997" d="M 200.5,160.5 C 200.59,163.152 199.924,165.485 198.5,167.5C 198.41,164.848 199.076,162.515 200.5,160.5 Z"/></g>
<g><path style="opacity:0.471" fill="#dbb0b4" d="M 93.5,159.5 C 94.9238,161.515 95.5905,163.848 95.5,166.5C 93.8372,164.562 93.1706,162.228 93.5,159.5 Z"/></g>
<g><path style="opacity:0.914" fill="#f4ca8d" d="M 291.5,134.5 C 293.378,151.219 292.211,167.886 288,184.5C 287.722,185.416 287.222,186.082 286.5,186.5C 287.664,178.847 288.664,171.18 289.5,163.5C 289.232,161.901 289.566,160.568 290.5,159.5C 291.493,151.35 291.826,143.017 291.5,134.5 Z"/></g>
<g><path style="opacity:0.69" fill="#d3a3a9" d="M 3.5,161.5 C 5.05378,165.567 5.72045,169.9 5.5,174.5C 3.94622,170.433 3.27955,166.1 3.5,161.5 Z"/></g>
<g><path style="opacity:1" fill="#f9af05" d="M 203.5,154.5 C 205.356,160.901 207.523,167.235 210,173.5C 214.726,177.735 219.559,181.735 224.5,185.5C 230.616,190.783 237.783,192.783 246,191.5C 252.353,191.792 258.519,190.959 264.5,189C 265.942,188.623 266.942,187.79 267.5,186.5C 276.937,180.733 284.27,173.066 289.5,163.5C 288.664,171.18 287.664,178.847 286.5,186.5C 285.883,186.611 285.383,186.944 285,187.5C 282.936,195.465 280.436,203.131 277.5,210.5C 275.896,211.287 275.229,212.62 275.5,214.5C 274.89,216.434 273.89,218.101 272.5,219.5C 271.027,220.071 269.36,220.071 267.5,219.5C 267.039,223.212 266.373,226.879 265.5,230.5C 265.5,230.833 265.5,231.167 265.5,231.5C 263.415,232.35 261.415,232.684 259.5,232.5C 261.011,234.838 260.677,235.504 258.5,234.5C 257.61,237.394 256.276,240.061 254.5,242.5C 253.808,241.975 253.308,241.308 253,240.5C 252.505,242.473 252.338,244.473 252.5,246.5C 249.833,249.833 246.833,252.833 243.5,255.5C 240.159,256.002 237.159,257.336 234.5,259.5C 232.899,258.835 231.399,258.501 230,258.5C 230.707,260.311 231.207,262.311 231.5,264.5C 227.543,263.973 225.21,265.639 224.5,269.5C 222.833,269.5 221.167,269.5 219.5,269.5C 219.5,270.833 219.5,272.167 219.5,273.5C 219.167,273.5 218.833,273.5 218.5,273.5C 216.62,273.229 215.287,273.896 214.5,275.5C 212.62,275.229 211.287,275.896 210.5,277.5C 205.381,279.415 200.048,280.582 194.5,281C 194.167,281.333 193.833,281.667 193.5,282C 194.737,282.232 195.737,282.732 196.5,283.5C 194.302,283.12 192.635,283.787 191.5,285.5C 191.167,285.5 190.833,285.5 190.5,285.5C 186.956,285.132 183.956,286.132 181.5,288.5C 174.93,290.058 168.263,291.058 161.5,291.5C 150.589,292.272 139.923,291.272 129.5,288.5C 120.446,283.654 113.113,276.987 107.5,268.5C 104.183,261.548 102.516,254.214 102.5,246.5C 101.957,239.481 103.624,233.148 107.5,227.5C 108.815,226.524 110.148,225.524 111.5,224.5C 113.08,220.336 115.414,216.669 118.5,213.5C 119.992,210.677 122.326,209.01 125.5,208.5C 129.797,207.345 133.797,205.679 137.5,203.5C 137.833,203.5 138.167,203.5 138.5,203.5C 140.621,203.675 142.621,203.341 144.5,202.5C 145.167,202.5 145.833,202.5 146.5,202.5C 154.045,203.302 161.045,201.968 167.5,198.5C 168.391,197.89 169.391,197.557 170.5,197.5C 178.998,194.569 185.664,189.236 190.5,181.5C 195.226,178.053 197.892,173.386 198.5,167.5C 199.924,165.485 200.59,163.152 200.5,160.5C 200.5,160.167 200.5,159.833 200.5,159.5C 201.065,157.58 202.065,155.913 203.5,154.5 Z"/></g>
<g><path style="opacity:1" fill="#f2c564" d="M 198.5,167.5 C 197.892,173.386 195.226,178.053 190.5,181.5C 193.17,176.825 195.837,172.159 198.5,167.5 Z"/></g>
<g><path style="opacity:0.29" fill="#e7bcc5" d="M 100.5,176.5 C 101.906,176.973 102.573,177.973 102.5,179.5C 101.094,179.027 100.427,178.027 100.5,176.5 Z"/></g>
<g><path style="opacity:1" fill="#ce96a2" d="M 5.5,174.5 C 7.02463,177.583 8.02463,180.916 8.5,184.5C 8.5,185.5 8.5,186.5 8.5,187.5C 6.42493,183.526 5.42493,179.192 5.5,174.5 Z"/></g>
<g><path style="opacity:0.557" fill="#e2a8b7" d="M 102.5,179.5 C 104.262,180.262 105.262,181.596 105.5,183.5C 103.738,182.738 102.738,181.404 102.5,179.5 Z"/></g>
<g><path style="opacity:0.667" fill="#f7d07c" d="M 190.5,181.5 C 185.664,189.236 178.998,194.569 170.5,197.5C 177.857,193.139 184.524,187.806 190.5,181.5 Z"/></g>
<g><path style="opacity:1" fill="#ac5e6c" d="M 8.5,184.5 C 9.96626,185.347 10.7996,186.68 11,188.5C 11.3333,187.833 11.6667,187.167 12,186.5C 12.1764,189.882 12.6764,193.215 13.5,196.5C 15.8682,203.184 18.2015,209.851 20.5,216.5C 16.256,210.873 13.256,204.54 11.5,197.5C 11.7406,195.102 11.0739,193.102 9.5,191.5C 8.76589,190.292 8.43255,188.959 8.5,187.5C 8.5,186.5 8.5,185.5 8.5,184.5 Z"/></g>
<g><path style="opacity:0.039" fill="#edcad0" d="M 110.5,188.5 C 112.027,188.427 113.027,189.094 113.5,190.5C 113.167,190.5 112.833,190.5 112.5,190.5C 111.5,190.167 110.833,189.5 110.5,188.5 Z"/></g>
<g><path style="opacity:1" fill="#f37d2d" d="M 224.5,185.5 C 228.761,186.249 232.761,187.749 236.5,190C 247.115,191.072 257.448,189.906 267.5,186.5C 266.942,187.79 265.942,188.623 264.5,189C 258.519,190.959 252.353,191.792 246,191.5C 237.783,192.783 230.616,190.783 224.5,185.5 Z"/></g>
<g><path style="opacity:1" fill="#f4ca6f" d="M 286.5,186.5 C 285.52,191.945 284.02,197.279 282,202.5C 280.395,205.191 278.895,207.858 277.5,210.5C 280.436,203.131 282.936,195.465 285,187.5C 285.383,186.944 285.883,186.611 286.5,186.5 Z"/></g>
<g><path style="opacity:0.42" fill="#ebc1c8" d="M 9.5,191.5 C 11.0739,193.102 11.7406,195.102 11.5,197.5C 10.2616,195.786 9.59495,193.786 9.5,191.5 Z"/></g>
<g><path style="opacity:1" fill="#b9727e" d="M 112.5,190.5 C 112.833,190.5 113.167,190.5 113.5,190.5C 117.24,193.367 121.24,195.7 125.5,197.5C 120.927,197.88 116.927,196.547 113.5,193.5C 112.873,192.583 112.539,191.583 112.5,190.5 Z"/></g>
<g><path style="opacity:0.624" fill="#d7aaaf" d="M 127.5,198.5 C 129.786,198.595 131.786,199.262 133.5,200.5C 131.102,200.741 129.102,200.074 127.5,198.5 Z"/></g>
<g><path style="opacity:0.345" fill="#fadc8f" d="M 167.5,198.5 C 161.045,201.968 154.045,203.302 146.5,202.5C 153.507,201.881 160.507,200.548 167.5,198.5 Z"/></g>
<g><path style="opacity:0.694" fill="#ecbea9" d="M 133.5,200.5 C 137.425,200.43 141.091,201.097 144.5,202.5C 142.621,203.341 140.621,203.675 138.5,203.5C 137.087,202.065 135.42,201.065 133.5,200.5 Z"/></g>
<g><path style="opacity:1" fill="#f1a65e" d="M 137.5,203.5 C 133.797,205.679 129.797,207.345 125.5,208.5C 126.058,207.21 127.058,206.377 128.5,206C 131.353,204.57 134.353,203.737 137.5,203.5 Z"/></g>
<g><path style="opacity:0.439" fill="#fad89e" d="M 277.5,210.5 C 277.34,212.153 276.674,213.486 275.5,214.5C 275.229,212.62 275.896,211.287 277.5,210.5 Z"/></g>
<g><path style="opacity:1" fill="#c38d96" d="M 21.5,218.5 C 23.7593,219.344 24.7593,221.011 24.5,223.5C 22.7497,222.341 21.7497,220.674 21.5,218.5 Z"/></g>
<g><path style="opacity:1" fill="#f5be51" d="M 272.5,219.5 C 270.913,223.683 268.579,227.35 265.5,230.5C 266.373,226.879 267.039,223.212 267.5,219.5C 269.36,220.071 271.027,220.071 272.5,219.5 Z"/></g>
<g><path style="opacity:1" fill="#f9a944" d="M 118.5,213.5 C 115.414,216.669 113.08,220.336 111.5,224.5C 110.148,225.524 108.815,226.524 107.5,227.5C 109.467,222.356 112.467,217.856 116.5,214C 117.094,213.536 117.761,213.369 118.5,213.5 Z"/></g>
<g><path style="opacity:0.6" fill="#d8a7b1" d="M 29.5,231.5 C 31.4456,232.035 32.4456,233.368 32.5,235.5C 31.0256,234.564 30.0256,233.23 29.5,231.5 Z"/></g>
<g><path style="opacity:0.988" fill="#ac717e" d="M 32.5,235.5 C 35.9103,235.384 37.2436,237.05 36.5,240.5C 34.9373,239.055 33.604,237.389 32.5,235.5 Z"/></g>
<g><path style="opacity:1" fill="#f3bf4c" d="M 265.5,231.5 C 261.511,236.821 257.178,241.821 252.5,246.5C 252.338,244.473 252.505,242.473 253,240.5C 253.308,241.308 253.808,241.975 254.5,242.5C 256.276,240.061 257.61,237.394 258.5,234.5C 260.677,235.504 261.011,234.838 259.5,232.5C 261.415,232.684 263.415,232.35 265.5,231.5 Z"/></g>
<g><path style="opacity:0.008" fill="#f3dde1" d="M 38.5,242.5 C 39.9063,242.973 40.573,243.973 40.5,245.5C 39.0937,245.027 38.427,244.027 38.5,242.5 Z"/></g>
<g><path style="opacity:0.765" fill="#d2b6bb" d="M 40.5,245.5 C 42.5,245.5 43.5,246.5 43.5,248.5C 42.1667,247.833 41.1667,246.833 40.5,245.5 Z"/></g>
<g><path style="opacity:1" fill="#ba828b" d="M 43.5,248.5 C 46.179,248.525 47.5123,249.858 47.5,252.5C 45.8333,251.5 44.5,250.167 43.5,248.5 Z"/></g>
<g><path style="opacity:0.647" fill="#e4c5c8" d="M 47.5,252.5 C 49.7488,253.08 51.4154,254.413 52.5,256.5C 50.2512,255.92 48.5846,254.587 47.5,252.5 Z"/></g>
<g><path style="opacity:0.294" fill="#eabccc" d="M 54.5,258.5 C 56.0269,258.427 57.0269,259.094 57.5,260.5C 55.9731,260.573 54.9731,259.906 54.5,258.5 Z"/></g>
<g><path style="opacity:1" fill="#f6bb4a" d="M 243.5,255.5 C 238.94,260.125 233.94,264.291 228.5,268C 227.255,268.791 225.922,269.291 224.5,269.5C 225.21,265.639 227.543,263.973 231.5,264.5C 231.207,262.311 230.707,260.311 230,258.5C 231.399,258.501 232.899,258.835 234.5,259.5C 237.159,257.336 240.159,256.002 243.5,255.5 Z"/></g>
<g><path style="opacity:1" fill="#b26f7b" d="M 62.5,264.5 C 63.8734,264.343 65.2068,264.51 66.5,265C 68.5905,266.588 70.2571,268.422 71.5,270.5C 67.9754,269.241 64.9754,267.241 62.5,264.5 Z"/></g>
<g><path style="opacity:1" fill="#f7c870" d="M 224.5,269.5 C 223.055,271.063 221.389,272.396 219.5,273.5C 219.5,272.167 219.5,270.833 219.5,269.5C 221.167,269.5 222.833,269.5 224.5,269.5 Z"/></g>
<g><path style="opacity:0.408" fill="#dfb1b9" d="M 73.5,271.5 C 75.0269,271.427 76.0269,272.094 76.5,273.5C 74.9731,273.573 73.9731,272.906 73.5,271.5 Z"/></g>
<g><path style="opacity:0.075" fill="#fae39d" d="M 218.5,273.5 C 217.486,274.674 216.153,275.34 214.5,275.5C 215.287,273.896 216.62,273.229 218.5,273.5 Z"/></g>
<g><path style="opacity:0.224" fill="#e4bfc5" d="M 80.5,275.5 C 82.153,275.66 83.4863,276.326 84.5,277.5C 82.6203,277.771 81.287,277.104 80.5,275.5 Z"/></g>
<g><path style="opacity:0.149" fill="#fbde95" d="M 214.5,275.5 C 213.486,276.674 212.153,277.34 210.5,277.5C 211.287,275.896 212.62,275.229 214.5,275.5 Z"/></g>
<g><path style="opacity:1" fill="#f6c560" d="M 210.5,277.5 C 206.144,280.068 201.478,282.068 196.5,283.5C 195.737,282.732 194.737,282.232 193.5,282C 193.833,281.667 194.167,281.333 194.5,281C 200.048,280.582 205.381,279.415 210.5,277.5 Z"/></g>
<g><path style="opacity:1" fill="#ae6674" d="M 84.5,277.5 C 89.4438,278.386 94.2771,279.719 99,281.5C 102.205,282.715 105.038,284.382 107.5,286.5C 99.2178,284.851 91.5512,281.851 84.5,277.5 Z"/></g>
<g><path style="opacity:1" fill="#a23d3b" d="M 107.5,268.5 C 113.113,276.987 120.446,283.654 129.5,288.5C 125.482,287.113 121.482,286.446 117.5,286.5C 119.115,283.515 118.281,281.515 115,280.5C 111.833,282 111,281.167 112.5,278C 108.841,275.851 107.174,272.684 107.5,268.5 Z"/></g>
<g><path style="opacity:0.012" fill="#fce8a2" d="M 196.5,283.5 C 195.07,284.537 193.403,285.204 191.5,285.5C 192.635,283.787 194.302,283.12 196.5,283.5 Z"/></g>
<g><path style="opacity:0.4" fill="#f7dc9f" d="M 190.5,285.5 C 187.785,287.072 184.785,288.072 181.5,288.5C 183.956,286.132 186.956,285.132 190.5,285.5 Z"/></g>
<g><path style="opacity:0.875" fill="#c79198" d="M 108.5,286.5 C 111.495,286.294 114.162,286.96 116.5,288.5C 113.505,288.706 110.838,288.04 108.5,286.5 Z"/></g>
<g><path style="opacity:0.333" fill="#deadb4" d="M 116.5,288.5 C 119.829,288.215 122.829,288.882 125.5,290.5C 122.219,290.58 119.219,289.913 116.5,288.5 Z"/></g>
<g><path style="opacity:0.973" fill="#d29b78" d="M 129.5,288.5 C 139.923,291.272 150.589,292.272 161.5,291.5C 157.514,292.166 153.347,292.499 149,292.5C 141.286,292.565 133.786,291.899 126.5,290.5C 127.873,290.657 129.207,290.49 130.5,290C 129.944,289.617 129.611,289.117 129.5,288.5 Z"/></g>
</svg>
